<mxfile host="app.diagrams.net" modified="2024-06-05T14:41:11.727Z" agent="Mozilla/5.0 (Windows NT 10.0; Win64; x64) AppleWebKit/537.36 (KHTML, like Gecko) Chrome/121.0.0.0 Safari/537.36" etag="SIV6ewqE2xl0vuPD3fXm" version="24.4.14" type="device" pages="6">
  <diagram name="Página-1" id="Nehm9rIeHdBPcEdYNCYd">
    <mxGraphModel dx="2261" dy="782" grid="1" gridSize="10" guides="1" tooltips="1" connect="1" arrows="1" fold="1" page="1" pageScale="1" pageWidth="827" pageHeight="1169" background="#ffffff" math="0" shadow="0">
      <root>
        <mxCell id="0" />
        <mxCell id="1" parent="0" />
        <mxCell id="MLSOQV9A00DncdWF_UMd-2" value="" style="shape=ext;double=1;rounded=1;whiteSpace=wrap;html=1;" parent="1" vertex="1">
          <mxGeometry x="230" y="80" width="312" height="600" as="geometry" />
        </mxCell>
        <mxCell id="MLSOQV9A00DncdWF_UMd-3" value="Cadastro do Cliente" style="text;strokeColor=none;fillColor=none;html=1;fontSize=24;fontStyle=1;verticalAlign=middle;align=center;" parent="1" vertex="1">
          <mxGeometry x="330" y="140" width="100" height="40" as="geometry" />
        </mxCell>
        <mxCell id="MLSOQV9A00DncdWF_UMd-4" value="" style="shape=actor;whiteSpace=wrap;html=1;fillColor=#dae8fc;gradientColor=#7ea6e0;strokeColor=#6c8ebf;" parent="1" vertex="1">
          <mxGeometry x="260" y="220" width="20" height="30" as="geometry" />
        </mxCell>
        <mxCell id="MLSOQV9A00DncdWF_UMd-5" value="NOME DO CLIENTE:" style="text;html=1;align=center;verticalAlign=middle;resizable=0;points=[];autosize=1;" parent="1" vertex="1">
          <mxGeometry x="274" y="220" width="140" height="30" as="geometry" />
        </mxCell>
        <mxCell id="MLSOQV9A00DncdWF_UMd-6" value="" style="rounded=1;whiteSpace=wrap;html=1;fillColor=#f5f5f5;gradientColor=#b3b3b3;strokeColor=#666666;" parent="1" vertex="1">
          <mxGeometry x="260" y="270" width="190" height="30" as="geometry" />
        </mxCell>
        <mxCell id="MLSOQV9A00DncdWF_UMd-10" value="" style="shape=ext;double=1;rounded=1;whiteSpace=wrap;html=1;" parent="1" vertex="1">
          <mxGeometry x="590" y="80" width="310" height="590" as="geometry" />
        </mxCell>
        <mxCell id="MLSOQV9A00DncdWF_UMd-15" value="TELEFONE:" style="text;html=1;align=center;verticalAlign=middle;resizable=0;points=[];autosize=1;strokeColor=none;fillColor=none;" parent="1" vertex="1">
          <mxGeometry x="250" y="320" width="90" height="30" as="geometry" />
        </mxCell>
        <mxCell id="MLSOQV9A00DncdWF_UMd-16" value="" style="rounded=1;whiteSpace=wrap;html=1;fillColor=#f5f5f5;gradientColor=#b3b3b3;strokeColor=#666666;" parent="1" vertex="1">
          <mxGeometry x="260" y="350" width="200" height="30" as="geometry" />
        </mxCell>
        <mxCell id="MLSOQV9A00DncdWF_UMd-17" style="edgeStyle=orthogonalEdgeStyle;rounded=0;orthogonalLoop=1;jettySize=auto;html=1;exitX=0.5;exitY=1;exitDx=0;exitDy=0;" parent="1" source="MLSOQV9A00DncdWF_UMd-16" target="MLSOQV9A00DncdWF_UMd-16" edge="1">
          <mxGeometry relative="1" as="geometry" />
        </mxCell>
        <mxCell id="MLSOQV9A00DncdWF_UMd-19" value="ENDEREÇO:" style="text;html=1;align=center;verticalAlign=middle;resizable=0;points=[];autosize=1;strokeColor=none;fillColor=none;" parent="1" vertex="1">
          <mxGeometry x="250" y="400" width="90" height="30" as="geometry" />
        </mxCell>
        <mxCell id="MLSOQV9A00DncdWF_UMd-20" value="" style="rounded=1;whiteSpace=wrap;html=1;fillColor=#f5f5f5;gradientColor=#b3b3b3;strokeColor=#666666;" parent="1" vertex="1">
          <mxGeometry x="255" y="440" width="205" height="30" as="geometry" />
        </mxCell>
        <mxCell id="MLSOQV9A00DncdWF_UMd-22" value="" style="rounded=1;whiteSpace=wrap;html=1;fillColor=#dae8fc;strokeColor=#6c8ebf;gradientColor=#7ea6e0;" parent="1" vertex="1">
          <mxGeometry x="274" y="530" width="190" height="30" as="geometry" />
        </mxCell>
        <mxCell id="MLSOQV9A00DncdWF_UMd-23" value="CADASTRAR" style="text;html=1;align=center;verticalAlign=middle;resizable=0;points=[];autosize=1;strokeColor=none;fillColor=none;" parent="1" vertex="1">
          <mxGeometry x="319" y="530" width="100" height="30" as="geometry" />
        </mxCell>
        <mxCell id="MLSOQV9A00DncdWF_UMd-25" value="Atualizar Cadastro" style="text;strokeColor=none;fillColor=none;html=1;fontSize=24;fontStyle=1;verticalAlign=middle;align=center;" parent="1" vertex="1">
          <mxGeometry x="705" y="140" width="100" height="40" as="geometry" />
        </mxCell>
        <mxCell id="MLSOQV9A00DncdWF_UMd-26" value="NOME:" style="text;html=1;align=center;verticalAlign=middle;resizable=0;points=[];autosize=1;strokeColor=none;fillColor=none;" parent="1" vertex="1">
          <mxGeometry x="620" y="220" width="60" height="30" as="geometry" />
        </mxCell>
        <mxCell id="MLSOQV9A00DncdWF_UMd-27" value="" style="rounded=1;whiteSpace=wrap;html=1;fillColor=#f5f5f5;gradientColor=#b3b3b3;strokeColor=#666666;" parent="1" vertex="1">
          <mxGeometry x="620" y="260" width="190" height="30" as="geometry" />
        </mxCell>
        <mxCell id="MLSOQV9A00DncdWF_UMd-32" value="TELEFONE:" style="text;html=1;align=center;verticalAlign=middle;resizable=0;points=[];autosize=1;strokeColor=none;fillColor=none;" parent="1" vertex="1">
          <mxGeometry x="620" y="330" width="90" height="30" as="geometry" />
        </mxCell>
        <mxCell id="MLSOQV9A00DncdWF_UMd-33" value="" style="rounded=1;whiteSpace=wrap;html=1;fillColor=#f5f5f5;gradientColor=#b3b3b3;strokeColor=#666666;" parent="1" vertex="1">
          <mxGeometry x="620" y="370" width="200" height="30" as="geometry" />
        </mxCell>
        <mxCell id="MLSOQV9A00DncdWF_UMd-35" value="ENDEREÇO:" style="text;html=1;align=center;verticalAlign=middle;resizable=0;points=[];autosize=1;strokeColor=none;fillColor=none;" parent="1" vertex="1">
          <mxGeometry x="620" y="450" width="90" height="30" as="geometry" />
        </mxCell>
        <mxCell id="MLSOQV9A00DncdWF_UMd-36" value="" style="rounded=1;whiteSpace=wrap;html=1;fillColor=#f5f5f5;gradientColor=#b3b3b3;strokeColor=#666666;" parent="1" vertex="1">
          <mxGeometry x="617" y="500" width="210" height="30" as="geometry" />
        </mxCell>
        <mxCell id="MLSOQV9A00DncdWF_UMd-40" value="" style="shape=ext;double=1;rounded=1;whiteSpace=wrap;html=1;" parent="1" vertex="1">
          <mxGeometry x="1080" y="115" width="210" height="95" as="geometry" />
        </mxCell>
        <mxCell id="MLSOQV9A00DncdWF_UMd-41" value="EXCLUIR CLIENTE:" style="text;html=1;align=center;verticalAlign=middle;resizable=0;points=[];autosize=1;strokeColor=none;fillColor=none;" parent="1" vertex="1">
          <mxGeometry x="1120" y="118" width="130" height="30" as="geometry" />
        </mxCell>
        <mxCell id="MLSOQV9A00DncdWF_UMd-47" value="SIM" style="rounded=1;whiteSpace=wrap;html=1;fillColor=#d5e8d4;gradientColor=#97d077;strokeColor=#82b366;" parent="1" vertex="1">
          <mxGeometry x="1100" y="155" width="70" height="40" as="geometry" />
        </mxCell>
        <mxCell id="MLSOQV9A00DncdWF_UMd-50" value="NÃO" style="rounded=1;whiteSpace=wrap;html=1;fillColor=#f8cecc;gradientColor=#ea6b66;strokeColor=#b85450;" parent="1" vertex="1">
          <mxGeometry x="1190" y="155" width="70" height="40" as="geometry" />
        </mxCell>
        <mxCell id="MLSOQV9A00DncdWF_UMd-56" value="" style="shape=ext;double=1;rounded=1;whiteSpace=wrap;html=1;" parent="1" vertex="1">
          <mxGeometry x="-180" y="80" width="320" height="590" as="geometry" />
        </mxCell>
        <mxCell id="MLSOQV9A00DncdWF_UMd-59" value="Buscar Cliente" style="text;strokeColor=none;fillColor=none;html=1;fontSize=24;fontStyle=1;verticalAlign=middle;align=center;" parent="1" vertex="1">
          <mxGeometry x="-80" y="142.5" width="100" height="40" as="geometry" />
        </mxCell>
        <mxCell id="MLSOQV9A00DncdWF_UMd-60" value="BUSCAR:" style="text;html=1;align=center;verticalAlign=middle;resizable=0;points=[];autosize=1;strokeColor=none;fillColor=none;" parent="1" vertex="1">
          <mxGeometry x="-160" y="210" width="80" height="30" as="geometry" />
        </mxCell>
        <mxCell id="MLSOQV9A00DncdWF_UMd-61" value="" style="rounded=1;whiteSpace=wrap;html=1;fillColor=#f5f5f5;gradientColor=#b3b3b3;strokeColor=#666666;" parent="1" vertex="1">
          <mxGeometry x="-160" y="250" width="230" height="30" as="geometry" />
        </mxCell>
        <mxCell id="i_d8DBgjObAV2C9J043A-8" style="edgeStyle=orthogonalEdgeStyle;rounded=0;orthogonalLoop=1;jettySize=auto;html=1;exitX=0.5;exitY=1;exitDx=0;exitDy=0;" parent="1" edge="1">
          <mxGeometry relative="1" as="geometry">
            <mxPoint x="-490" y="440" as="sourcePoint" />
            <mxPoint x="-490" y="440" as="targetPoint" />
          </mxGeometry>
        </mxCell>
        <mxCell id="i_d8DBgjObAV2C9J043A-11" style="edgeStyle=orthogonalEdgeStyle;rounded=0;orthogonalLoop=1;jettySize=auto;html=1;exitX=0.5;exitY=1;exitDx=0;exitDy=0;" parent="1" edge="1">
          <mxGeometry relative="1" as="geometry">
            <mxPoint x="-490" y="440" as="sourcePoint" />
            <mxPoint x="-490" y="440" as="targetPoint" />
          </mxGeometry>
        </mxCell>
        <mxCell id="r5omTz4ASneSBObr4HNN-8" value="" style="rounded=1;whiteSpace=wrap;html=1;fillColor=#dae8fc;gradientColor=#7ea6e0;strokeColor=#6c8ebf;" parent="1" vertex="1">
          <mxGeometry x="650" y="600" width="190" height="35" as="geometry" />
        </mxCell>
        <mxCell id="r5omTz4ASneSBObr4HNN-9" value="ATUALIZAR" style="text;html=1;align=center;verticalAlign=middle;resizable=0;points=[];autosize=1;" parent="1" vertex="1">
          <mxGeometry x="700" y="602.5" width="90" height="30" as="geometry" />
        </mxCell>
        <mxCell id="5M6-bZSBYD8w1iR_7Nmw-1" value="" style="rounded=1;whiteSpace=wrap;html=1;fillColor=#f5f5f5;gradientColor=#b3b3b3;strokeColor=#666666;" parent="1" vertex="1">
          <mxGeometry x="-160" y="300" width="230" height="30" as="geometry" />
        </mxCell>
        <mxCell id="5M6-bZSBYD8w1iR_7Nmw-2" value="" style="rounded=1;whiteSpace=wrap;html=1;fillColor=#f5f5f5;gradientColor=#b3b3b3;strokeColor=#666666;" parent="1" vertex="1">
          <mxGeometry x="-160" y="360" width="230" height="30" as="geometry" />
        </mxCell>
        <mxCell id="5M6-bZSBYD8w1iR_7Nmw-3" value="" style="rounded=1;whiteSpace=wrap;html=1;fillColor=#f5f5f5;gradientColor=#b3b3b3;strokeColor=#666666;" parent="1" vertex="1">
          <mxGeometry x="-160" y="420" width="230" height="30" as="geometry" />
        </mxCell>
        <mxCell id="5M6-bZSBYD8w1iR_7Nmw-4" value="" style="rounded=1;whiteSpace=wrap;html=1;fillColor=#f5f5f5;gradientColor=#b3b3b3;strokeColor=#666666;" parent="1" vertex="1">
          <mxGeometry x="-160" y="470" width="230" height="30" as="geometry" />
        </mxCell>
        <mxCell id="5M6-bZSBYD8w1iR_7Nmw-5" value="" style="rounded=1;whiteSpace=wrap;html=1;fillColor=#f5f5f5;gradientColor=#b3b3b3;strokeColor=#666666;" parent="1" vertex="1">
          <mxGeometry x="-160" y="530" width="230" height="30" as="geometry" />
        </mxCell>
        <mxCell id="5M6-bZSBYD8w1iR_7Nmw-8" value="" style="image;html=1;image=img/lib/atlassian/Bamboo_Logo.svg;" parent="1" vertex="1">
          <mxGeometry x="40" y="248" width="30" height="32" as="geometry" />
        </mxCell>
        <mxCell id="0rhMGNGCXtcn71c0CTjC-1" value="" style="image;html=1;image=img/lib/clip_art/computers/Database_Add_128x128.png" parent="1" vertex="1">
          <mxGeometry y="250" width="50" height="30" as="geometry" />
        </mxCell>
        <mxCell id="cqe_-NeyIgiiu6yVDFoB-1" value="" style="rounded=1;whiteSpace=wrap;html=1;fillColor=#f8cecc;gradientColor=#ea6b66;strokeColor=#b85450;" parent="1" vertex="1">
          <mxGeometry x="-410" y="270" width="170" height="90" as="geometry" />
        </mxCell>
        <mxCell id="cqe_-NeyIgiiu6yVDFoB-2" value="BUSCA NÃO ENCONTRADA" style="text;html=1;align=center;verticalAlign=middle;resizable=0;points=[];autosize=1;" parent="1" vertex="1">
          <mxGeometry x="-415" y="300" width="180" height="30" as="geometry" />
        </mxCell>
        <mxCell id="cqe_-NeyIgiiu6yVDFoB-4" value="CADASTRO ATUALIZADO." style="rounded=1;whiteSpace=wrap;html=1;fillColor=#d5e8d4;gradientColor=#97d077;strokeColor=#82b366;" parent="1" vertex="1">
          <mxGeometry x="1120" y="245" width="150" height="85" as="geometry" />
        </mxCell>
        <mxCell id="cqe_-NeyIgiiu6yVDFoB-7" value="CADASTRADO SUCEDIDO COM SUCESSO." style="rounded=1;whiteSpace=wrap;html=1;fillColor=#d5e8d4;gradientColor=#97d077;strokeColor=#82b366;" parent="1" vertex="1">
          <mxGeometry x="1120" y="360" width="150" height="80" as="geometry" />
        </mxCell>
        <mxCell id="gbjmydWUTink0ySZJDi6-1" value="" style="rounded=1;whiteSpace=wrap;html=1;fillColor=#d5e8d4;gradientColor=#97d077;strokeColor=#82b366;" parent="1" vertex="1">
          <mxGeometry x="1120" y="470" width="180" height="90" as="geometry" />
        </mxCell>
        <mxCell id="gbjmydWUTink0ySZJDi6-2" value="DESEJA ATUALIZAR?" style="text;html=1;align=center;verticalAlign=middle;resizable=0;points=[];autosize=1;strokeColor=none;fillColor=none;" parent="1" vertex="1">
          <mxGeometry x="1140" y="470" width="140" height="30" as="geometry" />
        </mxCell>
        <mxCell id="gbjmydWUTink0ySZJDi6-3" value="SIM" style="rounded=1;whiteSpace=wrap;html=1;fillColor=#d5e8d4;gradientColor=#97d077;strokeColor=#82b366;" parent="1" vertex="1">
          <mxGeometry x="1130" y="510" width="80" height="40" as="geometry" />
        </mxCell>
        <mxCell id="gbjmydWUTink0ySZJDi6-5" value="NÃO" style="rounded=1;whiteSpace=wrap;html=1;fillColor=#f8cecc;gradientColor=#ea6b66;strokeColor=#b85450;" parent="1" vertex="1">
          <mxGeometry x="1220" y="510" width="80" height="40" as="geometry" />
        </mxCell>
        <mxCell id="6oDO7iU0KZlgWKtHT9-Y-2" value="" style="image;html=1;image=img/lib/clip_art/computers/Database_Add_128x128.png" parent="1" vertex="1">
          <mxGeometry x="450" y="610" width="30" height="80" as="geometry" />
        </mxCell>
        <mxCell id="6oDO7iU0KZlgWKtHT9-Y-4" value="" style="image;html=1;image=img/lib/atlassian/Bamboo_Logo.svg;" parent="1" vertex="1">
          <mxGeometry x="480" y="632.5" width="30" height="30" as="geometry" />
        </mxCell>
        <mxCell id="6oDO7iU0KZlgWKtHT9-Y-6" value="CANCELAR" style="text;html=1;align=center;verticalAlign=middle;resizable=0;points=[];autosize=1;strokeColor=none;fillColor=none;" parent="1" vertex="1">
          <mxGeometry x="240" y="605" width="90" height="30" as="geometry" />
        </mxCell>
        <mxCell id="bPmU6J0NGCxMXrVpADqo-1" value="" style="rounded=1;whiteSpace=wrap;html=1;fillColor=#f8cecc;gradientColor=#ea6b66;strokeColor=#b85450;" parent="1" vertex="1">
          <mxGeometry x="-400" y="390" width="170" height="85" as="geometry" />
        </mxCell>
        <mxCell id="bPmU6J0NGCxMXrVpADqo-6" value="DADOS INVALÍDOS." style="text;html=1;align=center;verticalAlign=middle;resizable=0;points=[];autosize=1;strokeColor=none;fillColor=none;" parent="1" vertex="1">
          <mxGeometry x="-380" y="390" width="140" height="30" as="geometry" />
        </mxCell>
        <mxCell id="oMxuqsKburrg0ZU6qpSt-4" value="TEM CERTEZA QUE DESEJA APAGAR?" style="rounded=1;whiteSpace=wrap;html=1;" parent="1" vertex="1">
          <mxGeometry x="-430" y="680" width="200" height="100" as="geometry" />
        </mxCell>
        <mxCell id="IVPaqzdb6lnWKzywmZYY-1" value="" style="verticalLabelPosition=bottom;html=1;verticalAlign=top;align=center;strokeColor=none;fillColor=#00BEF2;shape=mxgraph.azure.azure_alert;" parent="1" vertex="1">
          <mxGeometry x="-350" y="680" width="40" height="30" as="geometry" />
        </mxCell>
        <mxCell id="IVPaqzdb6lnWKzywmZYY-3" value="SIM" style="rounded=1;whiteSpace=wrap;html=1;fillColor=#d5e8d4;gradientColor=#97d077;strokeColor=#82b366;" parent="1" vertex="1">
          <mxGeometry x="-415" y="750" width="80" height="30" as="geometry" />
        </mxCell>
        <mxCell id="IVPaqzdb6lnWKzywmZYY-4" style="edgeStyle=orthogonalEdgeStyle;rounded=0;orthogonalLoop=1;jettySize=auto;html=1;exitX=0.5;exitY=1;exitDx=0;exitDy=0;" parent="1" source="IVPaqzdb6lnWKzywmZYY-3" target="IVPaqzdb6lnWKzywmZYY-3" edge="1">
          <mxGeometry relative="1" as="geometry" />
        </mxCell>
        <mxCell id="IVPaqzdb6lnWKzywmZYY-5" value="NÃO" style="rounded=1;whiteSpace=wrap;html=1;fillColor=#f8cecc;gradientColor=#ea6b66;strokeColor=#b85450;" parent="1" vertex="1">
          <mxGeometry x="-320" y="750" width="80" height="30" as="geometry" />
        </mxCell>
        <mxCell id="wCjd3I1_9T2M1o6hJFrl-1" value="" style="shape=mxgraph.mockup.markup.redX;fillColor=#ff0000;html=1;shadow=0;whiteSpace=wrap;strokeColor=none;" vertex="1" parent="1">
          <mxGeometry x="-335" y="420" width="40" height="50" as="geometry" />
        </mxCell>
      </root>
    </mxGraphModel>
  </diagram>
  <diagram id="S5oQMI0IKuAiNyYAESik" name="Página-2">
    <mxGraphModel dx="2261" dy="782" grid="1" gridSize="10" guides="1" tooltips="1" connect="1" arrows="1" fold="1" page="1" pageScale="1" pageWidth="827" pageHeight="1169" background="none" math="0" shadow="0">
      <root>
        <mxCell id="0" />
        <mxCell id="1" parent="0" />
        <mxCell id="y8JoRkezIO1-t2VKg5RE-1" value="" style="shape=ext;double=1;rounded=1;whiteSpace=wrap;html=1;" parent="1" vertex="1">
          <mxGeometry x="160" y="147.5" width="360" height="695" as="geometry" />
        </mxCell>
        <mxCell id="y8JoRkezIO1-t2VKg5RE-4" value="Cadastro do Fornecedor" style="text;strokeColor=none;fillColor=none;html=1;fontSize=24;fontStyle=1;verticalAlign=middle;align=center;" parent="1" vertex="1">
          <mxGeometry x="280" y="170" width="100" height="40" as="geometry" />
        </mxCell>
        <mxCell id="y8JoRkezIO1-t2VKg5RE-8" value="" style="rounded=1;whiteSpace=wrap;html=1;fillColor=#f5f5f5;gradientColor=#b3b3b3;strokeColor=#666666;" parent="1" vertex="1">
          <mxGeometry x="210" y="250" width="205" height="30" as="geometry" />
        </mxCell>
        <mxCell id="y8JoRkezIO1-t2VKg5RE-9" value="NOME:" style="text;html=1;align=center;verticalAlign=middle;resizable=0;points=[];autosize=1;strokeColor=none;fillColor=none;" parent="1" vertex="1">
          <mxGeometry x="210" y="220" width="60" height="30" as="geometry" />
        </mxCell>
        <mxCell id="y8JoRkezIO1-t2VKg5RE-10" value="TELEFONE:" style="text;html=1;align=center;verticalAlign=middle;resizable=0;points=[];autosize=1;strokeColor=none;fillColor=none;" parent="1" vertex="1">
          <mxGeometry x="210" y="310" width="90" height="30" as="geometry" />
        </mxCell>
        <mxCell id="y8JoRkezIO1-t2VKg5RE-11" value="" style="rounded=1;whiteSpace=wrap;html=1;fillColor=#f5f5f5;gradientColor=#b3b3b3;strokeColor=#666666;" parent="1" vertex="1">
          <mxGeometry x="210" y="350" width="210" height="30" as="geometry" />
        </mxCell>
        <mxCell id="n2IC5InmJys4yYH-KP3w-20" style="edgeStyle=orthogonalEdgeStyle;rounded=0;orthogonalLoop=1;jettySize=auto;html=1;exitX=0.5;exitY=1;exitDx=0;exitDy=0;" parent="1" edge="1">
          <mxGeometry relative="1" as="geometry">
            <mxPoint x="305" y="680" as="sourcePoint" />
            <mxPoint x="305" y="680" as="targetPoint" />
          </mxGeometry>
        </mxCell>
        <mxCell id="n2IC5InmJys4yYH-KP3w-27" value="" style="shape=ext;double=1;rounded=1;whiteSpace=wrap;html=1;" parent="1" vertex="1">
          <mxGeometry x="640" y="147.5" width="340" height="670" as="geometry" />
        </mxCell>
        <mxCell id="n2IC5InmJys4yYH-KP3w-31" value="Atualizar Fornecedor" style="text;strokeColor=none;fillColor=none;html=1;fontSize=24;fontStyle=1;verticalAlign=middle;align=center;" parent="1" vertex="1">
          <mxGeometry x="760" y="170" width="100" height="40" as="geometry" />
        </mxCell>
        <mxCell id="n2IC5InmJys4yYH-KP3w-32" value="NOME:" style="text;html=1;align=center;verticalAlign=middle;resizable=0;points=[];autosize=1;strokeColor=none;fillColor=none;" parent="1" vertex="1">
          <mxGeometry x="670" y="230" width="60" height="30" as="geometry" />
        </mxCell>
        <mxCell id="n2IC5InmJys4yYH-KP3w-34" style="edgeStyle=orthogonalEdgeStyle;rounded=0;orthogonalLoop=1;jettySize=auto;html=1;exitX=0.5;exitY=1;exitDx=0;exitDy=0;" parent="1" edge="1">
          <mxGeometry relative="1" as="geometry">
            <mxPoint x="1290.5" y="310" as="sourcePoint" />
            <mxPoint x="1290.5" y="310" as="targetPoint" />
          </mxGeometry>
        </mxCell>
        <mxCell id="n2IC5InmJys4yYH-KP3w-36" value="" style="rounded=1;whiteSpace=wrap;html=1;fillColor=#f5f5f5;gradientColor=#b3b3b3;strokeColor=#666666;" parent="1" vertex="1">
          <mxGeometry x="680" y="270" width="200" height="30" as="geometry" />
        </mxCell>
        <mxCell id="n2IC5InmJys4yYH-KP3w-37" value="TELEFONE:" style="text;html=1;align=center;verticalAlign=middle;resizable=0;points=[];autosize=1;strokeColor=none;fillColor=none;" parent="1" vertex="1">
          <mxGeometry x="660" y="330" width="90" height="30" as="geometry" />
        </mxCell>
        <mxCell id="n2IC5InmJys4yYH-KP3w-38" value="" style="rounded=1;whiteSpace=wrap;html=1;fillColor=#f5f5f5;gradientColor=#b3b3b3;strokeColor=#666666;" parent="1" vertex="1">
          <mxGeometry x="670" y="370" width="210" height="30" as="geometry" />
        </mxCell>
        <mxCell id="n2IC5InmJys4yYH-KP3w-40" value="MATERIA&amp;nbsp; PRIMA:" style="text;html=1;align=center;verticalAlign=middle;resizable=0;points=[];autosize=1;strokeColor=none;fillColor=none;" parent="1" vertex="1">
          <mxGeometry x="252.5" y="440" width="120" height="30" as="geometry" />
        </mxCell>
        <mxCell id="n2IC5InmJys4yYH-KP3w-42" value="" style="rounded=1;whiteSpace=wrap;html=1;fillColor=#f5f5f5;gradientColor=#b3b3b3;strokeColor=#666666;" parent="1" vertex="1">
          <mxGeometry x="210" y="500" width="210" height="30" as="geometry" />
        </mxCell>
        <mxCell id="n2IC5InmJys4yYH-KP3w-43" value="TECIDO" style="text;html=1;align=center;verticalAlign=middle;resizable=0;points=[];autosize=1;strokeColor=none;fillColor=none;" parent="1" vertex="1">
          <mxGeometry x="210" y="500" width="70" height="30" as="geometry" />
        </mxCell>
        <mxCell id="C1rR_9tnQ80o2ntzNhFT-1" value="" style="rounded=1;whiteSpace=wrap;html=1;" parent="1" vertex="1">
          <mxGeometry x="1210" y="180" width="150" height="100" as="geometry" />
        </mxCell>
        <mxCell id="C1rR_9tnQ80o2ntzNhFT-3" style="edgeStyle=orthogonalEdgeStyle;rounded=0;orthogonalLoop=1;jettySize=auto;html=1;exitX=0.5;exitY=1;exitDx=0;exitDy=0;" parent="1" source="C1rR_9tnQ80o2ntzNhFT-1" target="C1rR_9tnQ80o2ntzNhFT-1" edge="1">
          <mxGeometry relative="1" as="geometry" />
        </mxCell>
        <mxCell id="C1rR_9tnQ80o2ntzNhFT-6" value="EXCLUIR FORNECEDOR" style="text;html=1;align=center;verticalAlign=middle;resizable=0;points=[];autosize=1;strokeColor=none;fillColor=none;" parent="1" vertex="1">
          <mxGeometry x="1205" y="190" width="160" height="30" as="geometry" />
        </mxCell>
        <mxCell id="C1rR_9tnQ80o2ntzNhFT-7" value="Text" style="text;html=1;align=center;verticalAlign=middle;resizable=0;points=[];autosize=1;strokeColor=none;fillColor=none;" parent="1" vertex="1">
          <mxGeometry x="1000" y="1640" width="50" height="30" as="geometry" />
        </mxCell>
        <mxCell id="C1rR_9tnQ80o2ntzNhFT-8" value="SIM" style="rounded=1;whiteSpace=wrap;html=1;fillColor=#d5e8d4;gradientColor=#97d077;strokeColor=#82b366;" parent="1" vertex="1">
          <mxGeometry x="1220" y="242.5" width="55" height="27.5" as="geometry" />
        </mxCell>
        <mxCell id="C1rR_9tnQ80o2ntzNhFT-9" value="" style="rounded=1;whiteSpace=wrap;html=1;" parent="1" vertex="1">
          <mxGeometry x="1280" y="242.5" width="60" height="30" as="geometry" />
        </mxCell>
        <mxCell id="C1rR_9tnQ80o2ntzNhFT-10" value="NÃO" style="text;html=1;align=center;verticalAlign=middle;resizable=0;points=[];autosize=1;fillColor=#f8cecc;gradientColor=#ea6b66;strokeColor=#b85450;" parent="1" vertex="1">
          <mxGeometry x="1285" y="242.5" width="50" height="30" as="geometry" />
        </mxCell>
        <mxCell id="NZmy07NMVWyuTTveGZH8-1" value="" style="shape=ext;double=1;rounded=1;whiteSpace=wrap;html=1;" parent="1" vertex="1">
          <mxGeometry x="-290" y="152.5" width="360" height="690" as="geometry" />
        </mxCell>
        <mxCell id="NZmy07NMVWyuTTveGZH8-2" value="Buscar Fornecedor" style="text;strokeColor=none;fillColor=none;html=1;fontSize=24;fontStyle=1;verticalAlign=middle;align=center;" parent="1" vertex="1">
          <mxGeometry x="-180" y="170" width="100" height="40" as="geometry" />
        </mxCell>
        <mxCell id="NZmy07NMVWyuTTveGZH8-4" value="BUSCAR:" style="text;html=1;align=center;verticalAlign=middle;resizable=0;points=[];autosize=1;strokeColor=none;fillColor=none;" parent="1" vertex="1">
          <mxGeometry x="-290" y="242.5" width="80" height="30" as="geometry" />
        </mxCell>
        <mxCell id="NZmy07NMVWyuTTveGZH8-6" value="" style="rounded=1;whiteSpace=wrap;html=1;fillColor=#f5f5f5;gradientColor=#b3b3b3;strokeColor=#666666;" parent="1" vertex="1">
          <mxGeometry x="-280" y="280" width="230" height="30" as="geometry" />
        </mxCell>
        <mxCell id="mCz_CMSDshdvTc8gVJoc-5" style="edgeStyle=orthogonalEdgeStyle;rounded=0;orthogonalLoop=1;jettySize=auto;html=1;exitX=0.5;exitY=1;exitDx=0;exitDy=0;" parent="1" edge="1">
          <mxGeometry relative="1" as="geometry">
            <mxPoint x="420" y="1070" as="sourcePoint" />
            <mxPoint x="420" y="1070" as="targetPoint" />
          </mxGeometry>
        </mxCell>
        <mxCell id="QrInuNXiKZNiZ6L7tHzl-1" value="" style="rounded=1;whiteSpace=wrap;html=1;fillColor=#dae8fc;gradientColor=#7ea6e0;strokeColor=#6c8ebf;" parent="1" vertex="1">
          <mxGeometry x="240" y="730" width="180" height="40" as="geometry" />
        </mxCell>
        <mxCell id="QrInuNXiKZNiZ6L7tHzl-4" value="" style="rounded=1;whiteSpace=wrap;html=1;fillColor=#dae8fc;gradientColor=#7ea6e0;strokeColor=#6c8ebf;" parent="1" vertex="1">
          <mxGeometry x="720" y="710" width="180" height="40" as="geometry" />
        </mxCell>
        <mxCell id="QrInuNXiKZNiZ6L7tHzl-5" value="CADASTRAR" style="text;html=1;align=center;verticalAlign=middle;resizable=0;points=[];autosize=1;strokeColor=none;fillColor=none;" parent="1" vertex="1">
          <mxGeometry x="280" y="735" width="100" height="30" as="geometry" />
        </mxCell>
        <mxCell id="QrInuNXiKZNiZ6L7tHzl-6" value="ATUALIZAR" style="text;html=1;align=center;verticalAlign=middle;resizable=0;points=[];autosize=1;strokeColor=none;fillColor=none;" parent="1" vertex="1">
          <mxGeometry x="765" y="715" width="90" height="30" as="geometry" />
        </mxCell>
        <mxCell id="NeqGMX22DxkR3jq7V_dI-2" value="" style="image;html=1;image=img/lib/atlassian/Bamboo_Logo.svg;" parent="1" vertex="1">
          <mxGeometry x="460" y="780" width="30" height="50" as="geometry" />
        </mxCell>
        <mxCell id="axcLieBwdLSID5J4qVgS-2" style="edgeStyle=orthogonalEdgeStyle;rounded=0;orthogonalLoop=1;jettySize=auto;html=1;exitX=0.5;exitY=1;exitDx=0;exitDy=0;" parent="1" edge="1">
          <mxGeometry relative="1" as="geometry">
            <mxPoint x="721.5" y="1060" as="sourcePoint" />
            <mxPoint x="721.5" y="1060" as="targetPoint" />
          </mxGeometry>
        </mxCell>
        <mxCell id="axcLieBwdLSID5J4qVgS-4" style="edgeStyle=orthogonalEdgeStyle;rounded=0;orthogonalLoop=1;jettySize=auto;html=1;exitX=0.5;exitY=1;exitDx=0;exitDy=0;" parent="1" edge="1">
          <mxGeometry relative="1" as="geometry">
            <mxPoint x="721.5" y="1060" as="sourcePoint" />
            <mxPoint x="721.5" y="1060" as="targetPoint" />
          </mxGeometry>
        </mxCell>
        <mxCell id="axcLieBwdLSID5J4qVgS-7" value="" style="image;html=1;image=img/lib/atlassian/Bamboo_Logo.svg;" parent="1" vertex="1">
          <mxGeometry x="910" y="760" width="30" height="50" as="geometry" />
        </mxCell>
        <mxCell id="8slYZArztmNT6HqjNO5a-2" value="" style="image;html=1;image=img/lib/clip_art/computers/Database_Add_128x128.png" parent="1" vertex="1">
          <mxGeometry x="-120" y="285" width="80" height="20" as="geometry" />
        </mxCell>
        <mxCell id="8slYZArztmNT6HqjNO5a-3" value="" style="html=1;verticalLabelPosition=bottom;align=center;labelBackgroundColor=#ffffff;verticalAlign=top;strokeWidth=2;strokeColor=#0080F0;shadow=0;dashed=0;shape=mxgraph.ios7.icons.add;" parent="1" vertex="1">
          <mxGeometry x="460" y="440" width="30" height="30" as="geometry" />
        </mxCell>
        <mxCell id="TfXjXjl1IuMoWGwuozTe-1" value="" style="image;html=1;image=img/lib/atlassian/Bamboo_Logo.svg;" parent="1" vertex="1">
          <mxGeometry x="-70" y="285" width="20" height="20" as="geometry" />
        </mxCell>
        <mxCell id="TfXjXjl1IuMoWGwuozTe-4" value="&lt;span style=&quot;color: rgba(0, 0, 0, 0); font-family: monospace; font-size: 0px; text-align: start; text-wrap: nowrap;&quot;&gt;%3CmxGraphModel%3E%3Croot%3E%3CmxCell%20id%3D%220%22%2F%3E%3CmxCell%20id%3D%221%22%20parent%3D%220%22%2F%3E%3CmxCell%20id%3D%222%22%20value%3D%22%22%20style%3D%22rounded%3D1%3BwhiteSpace%3Dwrap%3Bhtml%3D1%3BfillColor%3D%23f5f5f5%3BgradientColor%3D%23b3b3b3%3BstrokeColor%3D%23666666%3B%22%20vertex%3D%221%22%20parent%3D%221%22%3E%3CmxGeometry%20x%3D%22-280%22%20y%3D%22280%22%20width%3D%22230%22%20height%3D%2230%22%20as%3D%22geometry%22%2F%3E%3C%2FmxCell%3E%3C%2Froot%3E%3C%2FmxGraphModel%3EV&lt;/span&gt;" style="rounded=1;whiteSpace=wrap;html=1;fillColor=#f5f5f5;gradientColor=#b3b3b3;strokeColor=#666666;" parent="1" vertex="1">
          <mxGeometry x="-280" y="330" width="230" height="30" as="geometry" />
        </mxCell>
        <mxCell id="TfXjXjl1IuMoWGwuozTe-5" value="" style="rounded=1;whiteSpace=wrap;html=1;fillColor=#f5f5f5;gradientColor=#b3b3b3;strokeColor=#666666;" parent="1" vertex="1">
          <mxGeometry x="-280" y="390" width="230" height="30" as="geometry" />
        </mxCell>
        <mxCell id="TfXjXjl1IuMoWGwuozTe-6" value="&lt;span style=&quot;color: rgba(0, 0, 0, 0); font-family: monospace; font-size: 0px; text-align: start; text-wrap: nowrap;&quot;&gt;%3CmxGraphModel%3E%3Croot%3E%3CmxCell%20id%3D%220%22%2F%3E%3CmxCell%20id%3D%221%22%20parent%3D%220%22%2F%3E%3CmxCell%20id%3D%222%22%20value%3D%22%22%20style%3D%22rounded%3D1%3BwhiteSpace%3Dwrap%3Bhtml%3D1%3BfillColor%3D%23f5f5f5%3BgradientColor%3D%23b3b3b3%3BstrokeColor%3D%23666666%3B%22%20vertex%3D%221%22%20parent%3D%221%22%3E%3CmxGeometry%20x%3D%22-280%22%20y%3D%22280%22%20width%3D%22230%22%20height%3D%2230%22%20as%3D%22geometry%22%2F%3E%3C%2FmxCell%3E%3C%2Froot%3E%3C%2FmxGraphModel%3EV&lt;/span&gt;" style="rounded=1;whiteSpace=wrap;html=1;fillColor=#f5f5f5;gradientColor=#b3b3b3;strokeColor=#666666;" parent="1" vertex="1">
          <mxGeometry x="-280" y="450" width="230" height="30" as="geometry" />
        </mxCell>
        <mxCell id="TfXjXjl1IuMoWGwuozTe-8" value="&lt;span style=&quot;color: rgba(0, 0, 0, 0); font-family: monospace; font-size: 0px; text-align: start; text-wrap: nowrap;&quot;&gt;%3CmxGraphModel%3E%3Croot%3E%3CmxCell%20id%3D%220%22%2F%3E%3CmxCell%20id%3D%221%22%20parent%3D%220%22%2F%3E%3CmxCell%20id%3D%222%22%20value%3D%22%22%20style%3D%22rounded%3D1%3BwhiteSpace%3Dwrap%3Bhtml%3D1%3BfillColor%3D%23f5f5f5%3BgradientColor%3D%23b3b3b3%3BstrokeColor%3D%23666666%3B%22%20vertex%3D%221%22%20parent%3D%221%22%3E%3CmxGeometry%20x%3D%22-280%22%20y%3D%22280%22%20width%3D%22230%22%20height%3D%2230%22%20as%3D%22geometry%22%2F%3E%3C%2FmxCell%3E%3C%2Froot%3E%3C%2FmxGraphModel%3EV&lt;/span&gt;" style="rounded=1;whiteSpace=wrap;html=1;fillColor=#f5f5f5;gradientColor=#b3b3b3;strokeColor=#666666;" parent="1" vertex="1">
          <mxGeometry x="-280" y="510" width="230" height="30" as="geometry" />
        </mxCell>
        <mxCell id="TfXjXjl1IuMoWGwuozTe-9" value="&lt;span style=&quot;color: rgba(0, 0, 0, 0); font-family: monospace; font-size: 0px; text-align: start; text-wrap: nowrap;&quot;&gt;%3CmxGraphModel%3E%3Croot%3E%3CmxCell%20id%3D%220%22%2F%3E%3CmxCell%20id%3D%221%22%20parent%3D%220%22%2F%3E%3CmxCell%20id%3D%222%22%20value%3D%22%22%20style%3D%22rounded%3D1%3BwhiteSpace%3Dwrap%3Bhtml%3D1%3BfillColor%3D%23f5f5f5%3BgradientColor%3D%23b3b3b3%3BstrokeColor%3D%23666666%3B%22%20vertex%3D%221%22%20parent%3D%221%22%3E%3CmxGeometry%20x%3D%22-280%22%20y%3D%22280%22%20width%3D%22230%22%20height%3D%2230%22%20as%3D%22geometry%22%2F%3E%3C%2FmxCell%3E%3C%2Froot%3E%3C%2FmxGraphModel%3EV&lt;/span&gt;" style="rounded=1;whiteSpace=wrap;html=1;fillColor=#f5f5f5;gradientColor=#b3b3b3;strokeColor=#666666;" parent="1" vertex="1">
          <mxGeometry x="-280" y="569.5" width="230" height="30" as="geometry" />
        </mxCell>
        <mxCell id="TfXjXjl1IuMoWGwuozTe-10" value="" style="rounded=1;whiteSpace=wrap;html=1;fillColor=#f5f5f5;gradientColor=#b3b3b3;strokeColor=#666666;" parent="1" vertex="1">
          <mxGeometry x="-280" y="620" width="230" height="30" as="geometry" />
        </mxCell>
        <mxCell id="TfXjXjl1IuMoWGwuozTe-11" value="" style="rounded=1;whiteSpace=wrap;html=1;fillColor=#f5f5f5;gradientColor=#b3b3b3;strokeColor=#666666;" parent="1" vertex="1">
          <mxGeometry x="-280" y="670" width="230" height="30" as="geometry" />
        </mxCell>
        <mxCell id="TfXjXjl1IuMoWGwuozTe-13" value="" style="rounded=1;whiteSpace=wrap;html=1;fillColor=#f5f5f5;gradientColor=#b3b3b3;strokeColor=#666666;" parent="1" vertex="1">
          <mxGeometry x="-280" y="720" width="230" height="30" as="geometry" />
        </mxCell>
        <mxCell id="TfXjXjl1IuMoWGwuozTe-14" value="" style="image;html=1;image=img/lib/clip_art/computers/Database_Add_128x128.png" parent="1" vertex="1">
          <mxGeometry x="400" y="440" width="80" height="25" as="geometry" />
        </mxCell>
        <mxCell id="TfXjXjl1IuMoWGwuozTe-15" value="" style="image;html=1;image=img/lib/clip_art/computers/Database_Add_128x128.png" parent="1" vertex="1">
          <mxGeometry x="414" y="790" width="40" height="40" as="geometry" />
        </mxCell>
        <mxCell id="TfXjXjl1IuMoWGwuozTe-16" value="" style="image;html=1;image=img/lib/clip_art/computers/Database_Add_128x128.png" parent="1" vertex="1">
          <mxGeometry x="860" y="770" width="60" height="40" as="geometry" />
        </mxCell>
        <mxCell id="gWVp1KaWgKqRj_6__2Ie-1" value="" style="rounded=1;whiteSpace=wrap;html=1;fillColor=#f8cecc;gradientColor=#ea6b66;strokeColor=#b85450;" parent="1" vertex="1">
          <mxGeometry x="-520" y="380" width="160" height="90" as="geometry" />
        </mxCell>
        <mxCell id="gWVp1KaWgKqRj_6__2Ie-2" value="BUSCA NÃO ENCONTRADA" style="text;html=1;align=center;verticalAlign=middle;resizable=0;points=[];autosize=1;strokeColor=none;fillColor=none;" parent="1" vertex="1">
          <mxGeometry x="-530" y="410" width="180" height="30" as="geometry" />
        </mxCell>
        <mxCell id="OAXfdgOqjvYd4x9rTFVG-1" value="CADASTRADO ATUALIZADO." style="rounded=1;whiteSpace=wrap;html=1;fillColor=#d5e8d4;gradientColor=#97d077;strokeColor=#82b366;" parent="1" vertex="1">
          <mxGeometry x="1215" y="325" width="145" height="95" as="geometry" />
        </mxCell>
        <mxCell id="lg3LIe5ACgw3thbIEwAe-1" value="CADASTRADO SUCEDIDO COM SUCESSO." style="rounded=1;whiteSpace=wrap;html=1;fillColor=#d5e8d4;gradientColor=#97d077;strokeColor=#82b366;" parent="1" vertex="1">
          <mxGeometry x="1215" y="460" width="150" height="90" as="geometry" />
        </mxCell>
        <mxCell id="vSv180BZIcuzlY06pstT-1" value="" style="rounded=1;whiteSpace=wrap;html=1;" parent="1" vertex="1">
          <mxGeometry x="1220" y="585" width="160" height="100.5" as="geometry" />
        </mxCell>
        <mxCell id="vSv180BZIcuzlY06pstT-2" value="DESEJA ATUALIZAR?" style="text;html=1;align=center;verticalAlign=middle;resizable=0;points=[];autosize=1;strokeColor=none;fillColor=none;" parent="1" vertex="1">
          <mxGeometry x="1225" y="590" width="140" height="30" as="geometry" />
        </mxCell>
        <mxCell id="vSv180BZIcuzlY06pstT-5" value="SIM" style="rounded=1;whiteSpace=wrap;html=1;fillColor=#d5e8d4;gradientColor=#97d077;strokeColor=#82b366;" parent="1" vertex="1">
          <mxGeometry x="1225" y="635" width="75" height="40" as="geometry" />
        </mxCell>
        <mxCell id="vSv180BZIcuzlY06pstT-8" value="NÃO" style="rounded=1;whiteSpace=wrap;html=1;fillColor=#f8cecc;gradientColor=#ea6b66;strokeColor=#b85450;" parent="1" vertex="1">
          <mxGeometry x="1300" y="635" width="80" height="40" as="geometry" />
        </mxCell>
        <mxCell id="u96o6z5x52s_HoZAEbye-2" value="" style="rounded=1;whiteSpace=wrap;html=1;fillColor=#f5f5f5;gradientColor=#b3b3b3;strokeColor=#666666;" parent="1" vertex="1">
          <mxGeometry x="210" y="555" width="220" height="30" as="geometry" />
        </mxCell>
        <mxCell id="u96o6z5x52s_HoZAEbye-4" value="QUANTIDADE:" style="text;html=1;align=center;verticalAlign=middle;resizable=0;points=[];autosize=1;strokeColor=none;fillColor=none;" parent="1" vertex="1">
          <mxGeometry x="210" y="555" width="110" height="30" as="geometry" />
        </mxCell>
        <mxCell id="7_VxdhOygH7brFmAfeqq-1" value="" style="rounded=1;whiteSpace=wrap;html=1;fillColor=#f8cecc;gradientColor=#ea6b66;strokeColor=#b85450;" parent="1" vertex="1">
          <mxGeometry x="-520" y="500" width="170" height="85" as="geometry" />
        </mxCell>
        <mxCell id="7DG39SNdv4ePYKWr5kbB-1" value="DADOS INVALÍDOS." style="text;html=1;align=center;verticalAlign=middle;resizable=0;points=[];autosize=1;strokeColor=none;fillColor=none;" parent="1" vertex="1">
          <mxGeometry x="-505" y="500" width="140" height="30" as="geometry" />
        </mxCell>
        <mxCell id="Z80xCRD77xWv53C6Rni4-1" value="TEM CERTEZA QUE DESEJA APAGAR?" style="rounded=1;whiteSpace=wrap;html=1;" vertex="1" parent="1">
          <mxGeometry x="-535" y="635" width="200" height="100" as="geometry" />
        </mxCell>
        <mxCell id="peqnyJzrgMuDTLEuD3ca-1" value="" style="verticalLabelPosition=bottom;html=1;verticalAlign=top;align=center;strokeColor=none;fillColor=#00BEF2;shape=mxgraph.azure.azure_alert;" vertex="1" parent="1">
          <mxGeometry x="-455" y="635" width="40" height="30" as="geometry" />
        </mxCell>
        <mxCell id="BqaI8aaTzNZ3I7MWmdTS-1" value="SIM" style="rounded=1;whiteSpace=wrap;html=1;fillColor=#d5e8d4;gradientColor=#97d077;strokeColor=#82b366;" vertex="1" parent="1">
          <mxGeometry x="-530" y="700" width="80" height="30" as="geometry" />
        </mxCell>
        <mxCell id="7oKzU5dSndjBS5fzIz2U-1" value="NÃO" style="rounded=1;whiteSpace=wrap;html=1;fillColor=#f8cecc;gradientColor=#ea6b66;strokeColor=#b85450;" vertex="1" parent="1">
          <mxGeometry x="-440" y="700" width="80" height="30" as="geometry" />
        </mxCell>
        <mxCell id="tcBshvObjW6SRpwXJMQp-1" value="" style="shape=mxgraph.mockup.markup.redX;fillColor=#ff0000;html=1;shadow=0;whiteSpace=wrap;strokeColor=none;" vertex="1" parent="1">
          <mxGeometry x="-450" y="530" width="30" height="50" as="geometry" />
        </mxCell>
      </root>
    </mxGraphModel>
  </diagram>
  <diagram id="efttQPQzu97GN0ZM1zmY" name="Página-3">
    <mxGraphModel dx="2261" dy="782" grid="1" gridSize="10" guides="1" tooltips="1" connect="1" arrows="1" fold="1" page="1" pageScale="1" pageWidth="827" pageHeight="1169" math="0" shadow="0">
      <root>
        <mxCell id="0" />
        <mxCell id="1" parent="0" />
        <mxCell id="YGtEUnviAIuZtPEZf_fg-1" value="" style="shape=ext;double=1;rounded=1;whiteSpace=wrap;html=1;" parent="1" vertex="1">
          <mxGeometry x="170" y="150" width="390" height="770" as="geometry" />
        </mxCell>
        <mxCell id="BfLmu-YW-YKFditS77bN-3" value="Busca de Pedido" style="text;strokeColor=none;fillColor=none;html=1;fontSize=24;fontStyle=1;verticalAlign=middle;align=center;" parent="1" vertex="1">
          <mxGeometry x="310" y="180" width="100" height="40" as="geometry" />
        </mxCell>
        <mxCell id="6yulXL6iLj2yBiZhTZMa-1" value="BUSCAR:" style="text;html=1;align=center;verticalAlign=middle;resizable=0;points=[];autosize=1;strokeColor=none;fillColor=none;" parent="1" vertex="1">
          <mxGeometry x="220" y="230" width="80" height="30" as="geometry" />
        </mxCell>
        <mxCell id="6yulXL6iLj2yBiZhTZMa-2" value="" style="rounded=1;whiteSpace=wrap;html=1;fillColor=#f5f5f5;gradientColor=#b3b3b3;strokeColor=#666666;" parent="1" vertex="1">
          <mxGeometry x="210" y="270" width="220" height="30" as="geometry" />
        </mxCell>
        <mxCell id="6yulXL6iLj2yBiZhTZMa-4" style="edgeStyle=orthogonalEdgeStyle;rounded=0;orthogonalLoop=1;jettySize=auto;html=1;exitX=0.5;exitY=1;exitDx=0;exitDy=0;" parent="1" source="6yulXL6iLj2yBiZhTZMa-2" target="6yulXL6iLj2yBiZhTZMa-2" edge="1">
          <mxGeometry relative="1" as="geometry" />
        </mxCell>
        <mxCell id="w1almvTap9NMUbSyboZ9-7" value="" style="shape=ext;double=1;rounded=1;whiteSpace=wrap;html=1;" parent="1" vertex="1">
          <mxGeometry x="630" y="150" width="400" height="800" as="geometry" />
        </mxCell>
        <mxCell id="w1almvTap9NMUbSyboZ9-9" value="Cadastro do Pedido" style="text;strokeColor=none;fillColor=none;html=1;fontSize=24;fontStyle=1;verticalAlign=middle;align=center;" parent="1" vertex="1">
          <mxGeometry x="765" y="170" width="100" height="40" as="geometry" />
        </mxCell>
        <mxCell id="w1almvTap9NMUbSyboZ9-11" value="NOME CLIENTE:" style="text;html=1;align=center;verticalAlign=middle;resizable=0;points=[];autosize=1;strokeColor=none;fillColor=none;" parent="1" vertex="1">
          <mxGeometry x="680" y="210" width="120" height="30" as="geometry" />
        </mxCell>
        <mxCell id="w1almvTap9NMUbSyboZ9-13" value="" style="rounded=1;whiteSpace=wrap;html=1;fillColor=#f5f5f5;gradientColor=#b3b3b3;strokeColor=#666666;" parent="1" vertex="1">
          <mxGeometry x="680" y="250" width="230" height="30" as="geometry" />
        </mxCell>
        <mxCell id="w1almvTap9NMUbSyboZ9-14" value="QUANTIDADE:" style="text;html=1;align=center;verticalAlign=middle;resizable=0;points=[];autosize=1;strokeColor=none;fillColor=none;" parent="1" vertex="1">
          <mxGeometry x="680" y="290" width="110" height="30" as="geometry" />
        </mxCell>
        <mxCell id="w1almvTap9NMUbSyboZ9-15" value="" style="rounded=1;whiteSpace=wrap;html=1;fillColor=#f5f5f5;gradientColor=#b3b3b3;strokeColor=#666666;" parent="1" vertex="1">
          <mxGeometry x="680" y="330" width="240" height="30" as="geometry" />
        </mxCell>
        <mxCell id="w1almvTap9NMUbSyboZ9-16" style="edgeStyle=orthogonalEdgeStyle;rounded=0;orthogonalLoop=1;jettySize=auto;html=1;exitX=0.5;exitY=1;exitDx=0;exitDy=0;" parent="1" source="w1almvTap9NMUbSyboZ9-15" target="w1almvTap9NMUbSyboZ9-15" edge="1">
          <mxGeometry relative="1" as="geometry" />
        </mxCell>
        <mxCell id="w1almvTap9NMUbSyboZ9-18" style="edgeStyle=orthogonalEdgeStyle;rounded=0;orthogonalLoop=1;jettySize=auto;html=1;exitX=0.5;exitY=1;exitDx=0;exitDy=0;" parent="1" source="w1almvTap9NMUbSyboZ9-15" target="w1almvTap9NMUbSyboZ9-15" edge="1">
          <mxGeometry relative="1" as="geometry" />
        </mxCell>
        <mxCell id="w1almvTap9NMUbSyboZ9-19" value="VALOR:" style="text;html=1;align=center;verticalAlign=middle;resizable=0;points=[];autosize=1;strokeColor=none;fillColor=none;" parent="1" vertex="1">
          <mxGeometry x="680" y="390" width="70" height="30" as="geometry" />
        </mxCell>
        <mxCell id="w1almvTap9NMUbSyboZ9-20" style="edgeStyle=orthogonalEdgeStyle;rounded=0;orthogonalLoop=1;jettySize=auto;html=1;exitX=0.5;exitY=1;exitDx=0;exitDy=0;" parent="1" source="w1almvTap9NMUbSyboZ9-13" target="w1almvTap9NMUbSyboZ9-13" edge="1">
          <mxGeometry relative="1" as="geometry" />
        </mxCell>
        <mxCell id="w1almvTap9NMUbSyboZ9-21" value="" style="rounded=1;whiteSpace=wrap;html=1;fillColor=#f5f5f5;gradientColor=#b3b3b3;strokeColor=#666666;" parent="1" vertex="1">
          <mxGeometry x="690" y="430" width="230" height="30" as="geometry" />
        </mxCell>
        <mxCell id="w1almvTap9NMUbSyboZ9-22" value="DESCONTO:" style="text;html=1;align=center;verticalAlign=middle;resizable=0;points=[];autosize=1;strokeColor=none;fillColor=none;" parent="1" vertex="1">
          <mxGeometry x="690" y="480" width="90" height="30" as="geometry" />
        </mxCell>
        <mxCell id="w1almvTap9NMUbSyboZ9-24" value="" style="rounded=1;whiteSpace=wrap;html=1;fillColor=#f5f5f5;gradientColor=#b3b3b3;strokeColor=#666666;" parent="1" vertex="1">
          <mxGeometry x="690" y="520" width="250" height="30" as="geometry" />
        </mxCell>
        <mxCell id="FZgY3i6MikdzaJBjszPk-3" value="PRAZO:" style="text;html=1;align=center;verticalAlign=middle;resizable=0;points=[];autosize=1;strokeColor=none;fillColor=none;" parent="1" vertex="1">
          <mxGeometry x="690" y="580" width="70" height="30" as="geometry" />
        </mxCell>
        <mxCell id="FZgY3i6MikdzaJBjszPk-4" value="" style="rounded=1;whiteSpace=wrap;html=1;fillColor=#f5f5f5;gradientColor=#b3b3b3;strokeColor=#666666;" parent="1" vertex="1">
          <mxGeometry x="690" y="620" width="240" height="30" as="geometry" />
        </mxCell>
        <mxCell id="Yknj2-mp-oteDbtIar2N-1" value="MODELOMARCA:" style="text;html=1;align=center;verticalAlign=middle;resizable=0;points=[];autosize=1;strokeColor=none;fillColor=none;" parent="1" vertex="1">
          <mxGeometry x="680" y="670" width="120" height="30" as="geometry" />
        </mxCell>
        <mxCell id="Yknj2-mp-oteDbtIar2N-4" value="" style="rounded=1;whiteSpace=wrap;html=1;fillColor=#f5f5f5;gradientColor=#b3b3b3;strokeColor=#666666;" parent="1" vertex="1">
          <mxGeometry x="695" y="710" width="230" height="30" as="geometry" />
        </mxCell>
        <mxCell id="Yknj2-mp-oteDbtIar2N-10" value="" style="rounded=1;whiteSpace=wrap;html=1;" parent="1" vertex="1">
          <mxGeometry x="850" y="778" width="120" height="40" as="geometry" />
        </mxCell>
        <mxCell id="Yknj2-mp-oteDbtIar2N-11" value="TOTAL:" style="text;html=1;align=center;verticalAlign=middle;resizable=0;points=[];autosize=1;strokeColor=none;fillColor=none;" parent="1" vertex="1">
          <mxGeometry x="785" y="783" width="60" height="30" as="geometry" />
        </mxCell>
        <mxCell id="Yknj2-mp-oteDbtIar2N-16" value="CADASTRAR" style="rounded=1;whiteSpace=wrap;html=1;fillColor=#dae8fc;gradientColor=#7ea6e0;strokeColor=#6c8ebf;" parent="1" vertex="1">
          <mxGeometry x="730" y="895" width="190" height="40" as="geometry" />
        </mxCell>
        <mxCell id="Yknj2-mp-oteDbtIar2N-29" value="" style="shape=ext;double=1;rounded=1;whiteSpace=wrap;html=1;" parent="1" vertex="1">
          <mxGeometry x="1060" y="160" width="380" height="790" as="geometry" />
        </mxCell>
        <mxCell id="Yknj2-mp-oteDbtIar2N-41" value="NOME CLIENTE:" style="text;html=1;align=center;verticalAlign=middle;resizable=0;points=[];autosize=1;strokeColor=none;fillColor=none;" parent="1" vertex="1">
          <mxGeometry x="1080" y="230" width="120" height="30" as="geometry" />
        </mxCell>
        <mxCell id="Yknj2-mp-oteDbtIar2N-44" value="Atualizar Pedido" style="text;strokeColor=none;fillColor=none;html=1;fontSize=24;fontStyle=1;verticalAlign=middle;align=center;" parent="1" vertex="1">
          <mxGeometry x="1191" y="180" width="100" height="40" as="geometry" />
        </mxCell>
        <mxCell id="uzmw9J4-wlxk1ZLPdoVt-1" value="" style="rounded=1;whiteSpace=wrap;html=1;fillColor=#f5f5f5;gradientColor=#b3b3b3;strokeColor=#666666;" parent="1" vertex="1">
          <mxGeometry x="1081" y="270" width="210" height="30" as="geometry" />
        </mxCell>
        <mxCell id="uzmw9J4-wlxk1ZLPdoVt-2" value="&lt;blockquote style=&quot;margin: 0 0 0 40px; border: none; padding: 0px;&quot;&gt;QUANTIDADE:&lt;/blockquote&gt;" style="text;html=1;align=center;verticalAlign=middle;resizable=0;points=[];autosize=1;strokeColor=none;fillColor=none;" parent="1" vertex="1">
          <mxGeometry x="1041" y="330" width="150" height="30" as="geometry" />
        </mxCell>
        <mxCell id="uzmw9J4-wlxk1ZLPdoVt-3" value="" style="rounded=1;whiteSpace=wrap;html=1;fillColor=#f5f5f5;gradientColor=#b3b3b3;strokeColor=#666666;" parent="1" vertex="1">
          <mxGeometry x="1080" y="370" width="210" height="30" as="geometry" />
        </mxCell>
        <mxCell id="uzmw9J4-wlxk1ZLPdoVt-4" value="VALOR:" style="text;html=1;align=center;verticalAlign=middle;resizable=0;points=[];autosize=1;strokeColor=none;fillColor=none;" parent="1" vertex="1">
          <mxGeometry x="1080" y="420" width="70" height="30" as="geometry" />
        </mxCell>
        <mxCell id="5wBZD4EqOgsWZcpFOpfP-1" value="" style="rounded=1;whiteSpace=wrap;html=1;fillColor=#f5f5f5;gradientColor=#b3b3b3;strokeColor=#666666;" parent="1" vertex="1">
          <mxGeometry x="1080" y="460" width="200" height="30" as="geometry" />
        </mxCell>
        <mxCell id="-GDadFt2iAu1GWcoq6w1-1" value="DESCONTO:" style="text;html=1;align=center;verticalAlign=middle;resizable=0;points=[];autosize=1;strokeColor=none;fillColor=none;" parent="1" vertex="1">
          <mxGeometry x="1081" y="520" width="90" height="30" as="geometry" />
        </mxCell>
        <mxCell id="-GDadFt2iAu1GWcoq6w1-2" value="" style="rounded=1;whiteSpace=wrap;html=1;fillColor=#f5f5f5;gradientColor=#b3b3b3;strokeColor=#666666;" parent="1" vertex="1">
          <mxGeometry x="1080" y="560" width="210" height="30" as="geometry" />
        </mxCell>
        <mxCell id="-GDadFt2iAu1GWcoq6w1-6" value="PRAZO:" style="text;html=1;align=center;verticalAlign=middle;resizable=0;points=[];autosize=1;strokeColor=none;fillColor=none;" parent="1" vertex="1">
          <mxGeometry x="1080" y="620" width="70" height="30" as="geometry" />
        </mxCell>
        <mxCell id="-GDadFt2iAu1GWcoq6w1-7" value="" style="rounded=1;whiteSpace=wrap;html=1;fillColor=#f5f5f5;gradientColor=#b3b3b3;strokeColor=#666666;" parent="1" vertex="1">
          <mxGeometry x="1080" y="660" width="230" height="30" as="geometry" />
        </mxCell>
        <mxCell id="-GDadFt2iAu1GWcoq6w1-8" value="MODELOMARCA:" style="text;html=1;align=center;verticalAlign=middle;resizable=0;points=[];autosize=1;strokeColor=none;fillColor=none;" parent="1" vertex="1">
          <mxGeometry x="1080" y="720" width="120" height="30" as="geometry" />
        </mxCell>
        <mxCell id="-GDadFt2iAu1GWcoq6w1-9" value="" style="rounded=1;whiteSpace=wrap;html=1;fillColor=#f5f5f5;gradientColor=#b3b3b3;strokeColor=#666666;" parent="1" vertex="1">
          <mxGeometry x="1085" y="770" width="220" height="30" as="geometry" />
        </mxCell>
        <mxCell id="-GDadFt2iAu1GWcoq6w1-10" style="edgeStyle=orthogonalEdgeStyle;rounded=0;orthogonalLoop=1;jettySize=auto;html=1;exitX=0.5;exitY=1;exitDx=0;exitDy=0;" parent="1" source="-GDadFt2iAu1GWcoq6w1-9" target="-GDadFt2iAu1GWcoq6w1-9" edge="1">
          <mxGeometry relative="1" as="geometry" />
        </mxCell>
        <mxCell id="-GDadFt2iAu1GWcoq6w1-12" style="edgeStyle=orthogonalEdgeStyle;rounded=0;orthogonalLoop=1;jettySize=auto;html=1;exitX=0.5;exitY=1;exitDx=0;exitDy=0;" parent="1" source="-GDadFt2iAu1GWcoq6w1-9" target="-GDadFt2iAu1GWcoq6w1-9" edge="1">
          <mxGeometry relative="1" as="geometry" />
        </mxCell>
        <mxCell id="-GDadFt2iAu1GWcoq6w1-13" value="TOTAL:" style="text;html=1;align=center;verticalAlign=middle;resizable=0;points=[];autosize=1;strokeColor=none;fillColor=none;" parent="1" vertex="1">
          <mxGeometry x="1241" y="835" width="60" height="30" as="geometry" />
        </mxCell>
        <mxCell id="-GDadFt2iAu1GWcoq6w1-15" style="edgeStyle=orthogonalEdgeStyle;rounded=0;orthogonalLoop=1;jettySize=auto;html=1;exitX=0.5;exitY=1;exitDx=0;exitDy=0;" parent="1" edge="1">
          <mxGeometry relative="1" as="geometry">
            <mxPoint x="1570" y="740" as="sourcePoint" />
            <mxPoint x="1570" y="740" as="targetPoint" />
          </mxGeometry>
        </mxCell>
        <mxCell id="-GDadFt2iAu1GWcoq6w1-17" style="edgeStyle=orthogonalEdgeStyle;rounded=0;orthogonalLoop=1;jettySize=auto;html=1;exitX=0.5;exitY=1;exitDx=0;exitDy=0;" parent="1" edge="1">
          <mxGeometry relative="1" as="geometry">
            <mxPoint x="1570" y="740" as="sourcePoint" />
            <mxPoint x="1570" y="740" as="targetPoint" />
          </mxGeometry>
        </mxCell>
        <mxCell id="-GDadFt2iAu1GWcoq6w1-21" value="" style="rounded=1;whiteSpace=wrap;html=1;" parent="1" vertex="1">
          <mxGeometry x="1301" y="835" width="110" height="35" as="geometry" />
        </mxCell>
        <mxCell id="-GDadFt2iAu1GWcoq6w1-22" value="" style="rounded=1;whiteSpace=wrap;html=1;fillColor=#dae8fc;gradientColor=#7ea6e0;strokeColor=#6c8ebf;" parent="1" vertex="1">
          <mxGeometry x="1170" y="900" width="160" height="40" as="geometry" />
        </mxCell>
        <mxCell id="-GDadFt2iAu1GWcoq6w1-23" value="ATUALIZAR:" style="text;html=1;align=center;verticalAlign=middle;resizable=0;points=[];autosize=1;strokeColor=none;fillColor=none;" parent="1" vertex="1">
          <mxGeometry x="1201" y="905" width="90" height="30" as="geometry" />
        </mxCell>
        <mxCell id="-GDadFt2iAu1GWcoq6w1-24" value="" style="rounded=1;whiteSpace=wrap;html=1;" parent="1" vertex="1">
          <mxGeometry x="1570" y="175" width="180" height="85" as="geometry" />
        </mxCell>
        <mxCell id="-GDadFt2iAu1GWcoq6w1-25" value="EXCLUIR PEDIDO:" style="text;html=1;align=center;verticalAlign=middle;resizable=0;points=[];autosize=1;strokeColor=none;fillColor=none;" parent="1" vertex="1">
          <mxGeometry x="1590" y="180" width="130" height="30" as="geometry" />
        </mxCell>
        <mxCell id="-GDadFt2iAu1GWcoq6w1-27" value="" style="rounded=1;whiteSpace=wrap;html=1;fillColor=#d5e8d4;gradientColor=#97d077;strokeColor=#82b366;" parent="1" vertex="1">
          <mxGeometry x="1574" y="220" width="80" height="30" as="geometry" />
        </mxCell>
        <mxCell id="-GDadFt2iAu1GWcoq6w1-28" value="SIM" style="text;html=1;align=center;verticalAlign=middle;resizable=0;points=[];autosize=1;" parent="1" vertex="1">
          <mxGeometry x="1590" y="220" width="40" height="30" as="geometry" />
        </mxCell>
        <mxCell id="-GDadFt2iAu1GWcoq6w1-29" value="" style="rounded=1;whiteSpace=wrap;html=1;fillColor=#f8cecc;gradientColor=#ea6b66;strokeColor=#b85450;" parent="1" vertex="1">
          <mxGeometry x="1660" y="217.5" width="80" height="35" as="geometry" />
        </mxCell>
        <mxCell id="-GDadFt2iAu1GWcoq6w1-30" value="NÃO" style="text;html=1;align=center;verticalAlign=middle;resizable=0;points=[];autosize=1;strokeColor=none;fillColor=none;" parent="1" vertex="1">
          <mxGeometry x="1670" y="222.5" width="50" height="30" as="geometry" />
        </mxCell>
        <mxCell id="Oleq1C-4eL7bmTbZt6My-2" value="" style="rounded=1;whiteSpace=wrap;html=1;fillColor=#f5f5f5;gradientColor=#b3b3b3;strokeColor=#666666;" parent="1" vertex="1">
          <mxGeometry x="210" y="330" width="220" height="30" as="geometry" />
        </mxCell>
        <mxCell id="Oleq1C-4eL7bmTbZt6My-3" value="&lt;span style=&quot;color: rgba(0, 0, 0, 0); font-family: monospace; font-size: 0px; text-align: start; text-wrap: nowrap;&quot;&gt;%3CmxGraphModel%3E%3Croot%3E%3CmxCell%20id%3D%220%22%2F%3E%3CmxCell%20id%3D%221%22%20parent%3D%220%22%2F%3E%3CmxCell%20id%3D%222%22%20value%3D%22%22%20style%3D%22rounded%3D1%3BwhiteSpace%3Dwrap%3Bhtml%3D1%3BfillColor%3D%23f5f5f5%3BgradientColor%3D%23b3b3b3%3BstrokeColor%3D%23666666%3B%22%20vertex%3D%221%22%20parent%3D%221%22%3E%3CmxGeometry%20x%3D%22210%22%20y%3D%22270%22%20width%3D%22220%22%20height%3D%2230%22%20as%3D%22geometry%22%2F%3E%3C%2FmxCell%3E%3C%2Froot%3E%3C%2FmxGraphModel%3EV&lt;/span&gt;" style="rounded=1;whiteSpace=wrap;html=1;fillColor=#f5f5f5;gradientColor=#b3b3b3;strokeColor=#666666;" parent="1" vertex="1">
          <mxGeometry x="210" y="390" width="220" height="30" as="geometry" />
        </mxCell>
        <mxCell id="Oleq1C-4eL7bmTbZt6My-4" value="" style="rounded=1;whiteSpace=wrap;html=1;fillColor=#f5f5f5;gradientColor=#b3b3b3;strokeColor=#666666;" parent="1" vertex="1">
          <mxGeometry x="210" y="460" width="220" height="30" as="geometry" />
        </mxCell>
        <mxCell id="Oleq1C-4eL7bmTbZt6My-5" value="" style="rounded=1;whiteSpace=wrap;html=1;fillColor=#f5f5f5;gradientColor=#b3b3b3;strokeColor=#666666;" parent="1" vertex="1">
          <mxGeometry x="210" y="530" width="220" height="30" as="geometry" />
        </mxCell>
        <mxCell id="Oleq1C-4eL7bmTbZt6My-6" value="" style="rounded=1;whiteSpace=wrap;html=1;fillColor=#f5f5f5;gradientColor=#b3b3b3;strokeColor=#666666;" parent="1" vertex="1">
          <mxGeometry x="210" y="590" width="220" height="30" as="geometry" />
        </mxCell>
        <mxCell id="Oleq1C-4eL7bmTbZt6My-7" value="" style="rounded=1;whiteSpace=wrap;html=1;fillColor=#f5f5f5;gradientColor=#b3b3b3;strokeColor=#666666;" parent="1" vertex="1">
          <mxGeometry x="210" y="650" width="220" height="30" as="geometry" />
        </mxCell>
        <mxCell id="Oleq1C-4eL7bmTbZt6My-8" value="" style="rounded=1;whiteSpace=wrap;html=1;fillColor=#f5f5f5;gradientColor=#b3b3b3;strokeColor=#666666;" parent="1" vertex="1">
          <mxGeometry x="210" y="720" width="220" height="30" as="geometry" />
        </mxCell>
        <mxCell id="Oleq1C-4eL7bmTbZt6My-9" value="" style="rounded=1;whiteSpace=wrap;html=1;fillColor=#f5f5f5;gradientColor=#b3b3b3;strokeColor=#666666;" parent="1" vertex="1">
          <mxGeometry x="210" y="783" width="220" height="30" as="geometry" />
        </mxCell>
        <mxCell id="v8l1elretDo9PQmNeMG6-1" value="" style="image;html=1;image=img/lib/clip_art/computers/Database_Add_128x128.png" parent="1" vertex="1">
          <mxGeometry x="350" y="275" width="80" height="20" as="geometry" />
        </mxCell>
        <mxCell id="F7tMo7NY8RU05pNttoXu-1" value="" style="image;html=1;image=img/lib/atlassian/Bamboo_Logo.svg;" parent="1" vertex="1">
          <mxGeometry x="400" y="270" width="30" height="30" as="geometry" />
        </mxCell>
        <mxCell id="F7tMo7NY8RU05pNttoXu-2" style="edgeStyle=orthogonalEdgeStyle;rounded=0;orthogonalLoop=1;jettySize=auto;html=1;exitX=0.5;exitY=1;exitDx=0;exitDy=0;" parent="1" source="v8l1elretDo9PQmNeMG6-1" target="v8l1elretDo9PQmNeMG6-1" edge="1">
          <mxGeometry relative="1" as="geometry" />
        </mxCell>
        <mxCell id="M_Rw0oPa0F1Z-VMyKKCT-1" value="CADASTRO ATUALIZADO." style="shape=ext;double=1;rounded=1;whiteSpace=wrap;html=1;fillColor=#d5e8d4;strokeColor=#82b366;gradientColor=#97d077;" parent="1" vertex="1">
          <mxGeometry x="1575" y="290" width="170" height="80" as="geometry" />
        </mxCell>
        <mxCell id="aqhN_cx4kKTEi3ZFQpir-1" value="CADASTRO BEM SUCEDIDO COM SUCESSO." style="shape=ext;double=1;rounded=1;whiteSpace=wrap;html=1;fillColor=#d5e8d4;strokeColor=#82b366;gradientColor=#97d077;" parent="1" vertex="1">
          <mxGeometry x="1574" y="400" width="170" height="80" as="geometry" />
        </mxCell>
        <mxCell id="WzpgeRVR5Be-WDJclVdh-1" value="" style="rounded=1;whiteSpace=wrap;html=1;" parent="1" vertex="1">
          <mxGeometry x="1575" y="510" width="171" height="90" as="geometry" />
        </mxCell>
        <mxCell id="u6SUomfHuKT36z6FH2tB-1" value="DESEJA ATUALIZAR?" style="text;html=1;align=center;verticalAlign=middle;resizable=0;points=[];autosize=1;strokeColor=none;fillColor=none;" parent="1" vertex="1">
          <mxGeometry x="1590" y="510" width="140" height="30" as="geometry" />
        </mxCell>
        <mxCell id="-_Ph-FtXZ96Hqyo957-K-2" value="SIM" style="rounded=1;whiteSpace=wrap;html=1;fillColor=#d5e8d4;gradientColor=#97d077;strokeColor=#82b366;" parent="1" vertex="1">
          <mxGeometry x="1580" y="560" width="80" height="30" as="geometry" />
        </mxCell>
        <mxCell id="-_Ph-FtXZ96Hqyo957-K-3" value="" style="rounded=1;whiteSpace=wrap;html=1;fillColor=#f8cecc;gradientColor=#ea6b66;strokeColor=#b85450;" parent="1" vertex="1">
          <mxGeometry x="1664" y="557.5" width="80" height="35" as="geometry" />
        </mxCell>
        <mxCell id="-_Ph-FtXZ96Hqyo957-K-4" value="NÃO" style="text;html=1;align=center;verticalAlign=middle;resizable=0;points=[];autosize=1;strokeColor=none;fillColor=none;" parent="1" vertex="1">
          <mxGeometry x="1679" y="562.5" width="50" height="30" as="geometry" />
        </mxCell>
        <mxCell id="HmjdVtr9bNrv4A6zjrNI-1" value="" style="rounded=1;whiteSpace=wrap;html=1;fillColor=#f8cecc;gradientColor=#ea6b66;strokeColor=#b85450;" parent="1" vertex="1">
          <mxGeometry x="-100" y="300" width="170" height="90" as="geometry" />
        </mxCell>
        <mxCell id="PeFqoVzW4WJPhOEuDLWM-1" value="" style="rounded=1;whiteSpace=wrap;html=1;fillColor=#f8cecc;gradientColor=#ea6b66;strokeColor=#b85450;" parent="1" vertex="1">
          <mxGeometry x="-95" y="432.5" width="170" height="85" as="geometry" />
        </mxCell>
        <mxCell id="4jo98b7wWuKE5ZoEgWT3-1" value="DADOS INVALÍDOS." style="text;html=1;align=center;verticalAlign=middle;resizable=0;points=[];autosize=1;strokeColor=none;fillColor=none;" parent="1" vertex="1">
          <mxGeometry x="-80" y="432.5" width="140" height="30" as="geometry" />
        </mxCell>
        <mxCell id="NaJvF0hX0ShP-STdXn_y-1" value="BUSCA NÃO ENCONTRADA" style="text;html=1;align=center;verticalAlign=middle;resizable=0;points=[];autosize=1;strokeColor=none;fillColor=none;" parent="1" vertex="1">
          <mxGeometry x="-105" y="330" width="180" height="30" as="geometry" />
        </mxCell>
        <mxCell id="-GgPHh34Ejs-8OXZ1Jyx-1" value="TEM CERTEZA QUE DESEJA APAGAR?" style="rounded=1;whiteSpace=wrap;html=1;" vertex="1" parent="1">
          <mxGeometry x="-95" y="570" width="200" height="100" as="geometry" />
        </mxCell>
        <mxCell id="JRPHYPPG3JWW-ydFlrkV-1" value="" style="verticalLabelPosition=bottom;html=1;verticalAlign=top;align=center;strokeColor=none;fillColor=#00BEF2;shape=mxgraph.azure.azure_alert;" vertex="1" parent="1">
          <mxGeometry x="-15" y="570" width="40" height="30" as="geometry" />
        </mxCell>
        <mxCell id="YlHZeS7WK3NFofhOOMX9-1" value="SIM" style="rounded=1;whiteSpace=wrap;html=1;fillColor=#d5e8d4;gradientColor=#97d077;strokeColor=#82b366;" vertex="1" parent="1">
          <mxGeometry x="-80" y="640" width="80" height="30" as="geometry" />
        </mxCell>
        <mxCell id="Hwo2g5U_3dP_xE9uJUo1-1" value="NÃO" style="rounded=1;whiteSpace=wrap;html=1;fillColor=#f8cecc;gradientColor=#ea6b66;strokeColor=#b85450;" vertex="1" parent="1">
          <mxGeometry x="10" y="640" width="80" height="30" as="geometry" />
        </mxCell>
        <mxCell id="KOQQUCyRqEMI17fXXazZ-1" value="" style="image;html=1;image=img/lib/clip_art/computers/Database_Add_128x128.png" vertex="1" parent="1">
          <mxGeometry x="940" y="890" width="36" height="50" as="geometry" />
        </mxCell>
        <mxCell id="dcK9GSg2JdicKzhNeNlJ-1" value="" style="image;html=1;image=img/lib/atlassian/Bamboo_Logo.svg;" vertex="1" parent="1">
          <mxGeometry x="976" y="895" width="30" height="35" as="geometry" />
        </mxCell>
        <mxCell id="gOdMQaCa1RHphr8yRVpN-1" value="" style="shape=mxgraph.mockup.markup.redX;fillColor=#ff0000;html=1;shadow=0;whiteSpace=wrap;strokeColor=none;" vertex="1" parent="1">
          <mxGeometry x="-35" y="462.5" width="50" height="40" as="geometry" />
        </mxCell>
      </root>
    </mxGraphModel>
  </diagram>
  <diagram id="5SM4rrL-i7MwGFFzOCQd" name="Página-4">
    <mxGraphModel dx="2261" dy="782" grid="1" gridSize="10" guides="1" tooltips="1" connect="1" arrows="1" fold="1" page="1" pageScale="1" pageWidth="827" pageHeight="1169" math="0" shadow="0">
      <root>
        <mxCell id="0" />
        <mxCell id="1" parent="0" />
        <mxCell id="sVeEHbbh7IfBRgkn-Utb-1" value="" style="shape=ext;double=1;rounded=1;whiteSpace=wrap;html=1;" parent="1" vertex="1">
          <mxGeometry x="165" y="150" width="390" height="770" as="geometry" />
        </mxCell>
        <mxCell id="sVeEHbbh7IfBRgkn-Utb-2" value="Busca de Pedido" style="text;strokeColor=none;fillColor=none;html=1;fontSize=24;fontStyle=1;verticalAlign=middle;align=center;" parent="1" vertex="1">
          <mxGeometry x="270" y="180" width="140" height="40" as="geometry" />
        </mxCell>
        <mxCell id="sVeEHbbh7IfBRgkn-Utb-3" value="BUSCAR:" style="text;html=1;align=center;verticalAlign=middle;resizable=0;points=[];autosize=1;strokeColor=none;fillColor=none;" parent="1" vertex="1">
          <mxGeometry x="220" y="230" width="80" height="30" as="geometry" />
        </mxCell>
        <mxCell id="sVeEHbbh7IfBRgkn-Utb-4" value="" style="rounded=1;whiteSpace=wrap;html=1;fillColor=#f5f5f5;gradientColor=#b3b3b3;strokeColor=#666666;" parent="1" vertex="1">
          <mxGeometry x="210" y="270" width="220" height="30" as="geometry" />
        </mxCell>
        <mxCell id="sVeEHbbh7IfBRgkn-Utb-5" style="edgeStyle=orthogonalEdgeStyle;rounded=0;orthogonalLoop=1;jettySize=auto;html=1;exitX=0.5;exitY=1;exitDx=0;exitDy=0;" parent="1" source="sVeEHbbh7IfBRgkn-Utb-4" target="sVeEHbbh7IfBRgkn-Utb-4" edge="1">
          <mxGeometry relative="1" as="geometry" />
        </mxCell>
        <mxCell id="sVeEHbbh7IfBRgkn-Utb-6" value="" style="rounded=1;whiteSpace=wrap;html=1;fillColor=#f5f5f5;gradientColor=#b3b3b3;strokeColor=#666666;" parent="1" vertex="1">
          <mxGeometry x="210" y="330" width="220" height="30" as="geometry" />
        </mxCell>
        <mxCell id="sVeEHbbh7IfBRgkn-Utb-7" value="&lt;span style=&quot;color: rgba(0, 0, 0, 0); font-family: monospace; font-size: 0px; text-align: start; text-wrap: nowrap;&quot;&gt;%3CmxGraphModel%3E%3Croot%3E%3CmxCell%20id%3D%220%22%2F%3E%3CmxCell%20id%3D%221%22%20parent%3D%220%22%2F%3E%3CmxCell%20id%3D%222%22%20value%3D%22%22%20style%3D%22rounded%3D1%3BwhiteSpace%3Dwrap%3Bhtml%3D1%3BfillColor%3D%23f5f5f5%3BgradientColor%3D%23b3b3b3%3BstrokeColor%3D%23666666%3B%22%20vertex%3D%221%22%20parent%3D%221%22%3E%3CmxGeometry%20x%3D%22210%22%20y%3D%22270%22%20width%3D%22220%22%20height%3D%2230%22%20as%3D%22geometry%22%2F%3E%3C%2FmxCell%3E%3C%2Froot%3E%3C%2FmxGraphModel%3EV&lt;/span&gt;" style="rounded=1;whiteSpace=wrap;html=1;fillColor=#f5f5f5;gradientColor=#b3b3b3;strokeColor=#666666;" parent="1" vertex="1">
          <mxGeometry x="210" y="390" width="220" height="30" as="geometry" />
        </mxCell>
        <mxCell id="sVeEHbbh7IfBRgkn-Utb-8" value="" style="rounded=1;whiteSpace=wrap;html=1;fillColor=#f5f5f5;gradientColor=#b3b3b3;strokeColor=#666666;" parent="1" vertex="1">
          <mxGeometry x="210" y="460" width="220" height="30" as="geometry" />
        </mxCell>
        <mxCell id="sVeEHbbh7IfBRgkn-Utb-9" value="" style="rounded=1;whiteSpace=wrap;html=1;fillColor=#f5f5f5;gradientColor=#b3b3b3;strokeColor=#666666;" parent="1" vertex="1">
          <mxGeometry x="210" y="530" width="220" height="30" as="geometry" />
        </mxCell>
        <mxCell id="sVeEHbbh7IfBRgkn-Utb-10" value="" style="rounded=1;whiteSpace=wrap;html=1;fillColor=#f5f5f5;gradientColor=#b3b3b3;strokeColor=#666666;" parent="1" vertex="1">
          <mxGeometry x="210" y="590" width="220" height="30" as="geometry" />
        </mxCell>
        <mxCell id="sVeEHbbh7IfBRgkn-Utb-11" value="" style="rounded=1;whiteSpace=wrap;html=1;fillColor=#f5f5f5;gradientColor=#b3b3b3;strokeColor=#666666;" parent="1" vertex="1">
          <mxGeometry x="210" y="650" width="220" height="30" as="geometry" />
        </mxCell>
        <mxCell id="sVeEHbbh7IfBRgkn-Utb-12" value="" style="rounded=1;whiteSpace=wrap;html=1;fillColor=#f5f5f5;gradientColor=#b3b3b3;strokeColor=#666666;" parent="1" vertex="1">
          <mxGeometry x="210" y="720" width="220" height="30" as="geometry" />
        </mxCell>
        <mxCell id="sVeEHbbh7IfBRgkn-Utb-13" value="" style="rounded=1;whiteSpace=wrap;html=1;fillColor=#f5f5f5;gradientColor=#b3b3b3;strokeColor=#666666;" parent="1" vertex="1">
          <mxGeometry x="210" y="783" width="220" height="30" as="geometry" />
        </mxCell>
        <mxCell id="sVeEHbbh7IfBRgkn-Utb-14" value="" style="image;html=1;image=img/lib/clip_art/computers/Database_Add_128x128.png" parent="1" vertex="1">
          <mxGeometry x="350" y="275" width="80" height="20" as="geometry" />
        </mxCell>
        <mxCell id="sVeEHbbh7IfBRgkn-Utb-15" value="" style="image;html=1;image=img/lib/atlassian/Bamboo_Logo.svg;" parent="1" vertex="1">
          <mxGeometry x="400" y="270" width="30" height="30" as="geometry" />
        </mxCell>
        <mxCell id="sVeEHbbh7IfBRgkn-Utb-16" style="edgeStyle=orthogonalEdgeStyle;rounded=0;orthogonalLoop=1;jettySize=auto;html=1;exitX=0.5;exitY=1;exitDx=0;exitDy=0;" parent="1" source="sVeEHbbh7IfBRgkn-Utb-14" target="sVeEHbbh7IfBRgkn-Utb-14" edge="1">
          <mxGeometry relative="1" as="geometry" />
        </mxCell>
        <mxCell id="DHuZLVAQpdrD_xvQrhKt-1" value="" style="shape=ext;double=1;rounded=1;whiteSpace=wrap;html=1;" parent="1" vertex="1">
          <mxGeometry x="600" y="150" width="380" height="780" as="geometry" />
        </mxCell>
        <mxCell id="sh-uca8M1SVM9c65CA1X-1" value="&lt;span style=&quot;color: rgb(0, 0, 0); font-family: Helvetica; font-size: 24px; font-style: normal; font-variant-ligatures: normal; font-variant-caps: normal; font-weight: 700; letter-spacing: normal; orphans: 2; text-align: center; text-indent: 0px; text-transform: none; widows: 2; word-spacing: 0px; -webkit-text-stroke-width: 0px; white-space: nowrap; background-color: rgb(251, 251, 251); text-decoration-thickness: initial; text-decoration-style: initial; text-decoration-color: initial; display: inline !important; float: none;&quot;&gt;Cadastro do Produto&lt;/span&gt;" style="text;whiteSpace=wrap;html=1;" parent="1" vertex="1">
          <mxGeometry x="660" y="190" width="260" height="50" as="geometry" />
        </mxCell>
        <mxCell id="sh-uca8M1SVM9c65CA1X-2" value="DESCRIÇÃO DO PRODUTO:" style="text;html=1;align=center;verticalAlign=middle;resizable=0;points=[];autosize=1;strokeColor=none;fillColor=none;" parent="1" vertex="1">
          <mxGeometry x="610" y="260" width="180" height="30" as="geometry" />
        </mxCell>
        <mxCell id="sh-uca8M1SVM9c65CA1X-3" value="" style="rounded=1;whiteSpace=wrap;html=1;fillColor=#f5f5f5;gradientColor=#b3b3b3;strokeColor=#666666;" parent="1" vertex="1">
          <mxGeometry x="610" y="300" width="220" height="30" as="geometry" />
        </mxCell>
        <mxCell id="sh-uca8M1SVM9c65CA1X-4" value="TELEFONE:" style="text;html=1;align=center;verticalAlign=middle;resizable=0;points=[];autosize=1;strokeColor=none;fillColor=none;" parent="1" vertex="1">
          <mxGeometry x="610" y="370" width="90" height="30" as="geometry" />
        </mxCell>
        <mxCell id="sh-uca8M1SVM9c65CA1X-5" value="" style="rounded=1;whiteSpace=wrap;html=1;fillColor=#f5f5f5;gradientColor=#b3b3b3;strokeColor=#666666;" parent="1" vertex="1">
          <mxGeometry x="610" y="420" width="220" height="30" as="geometry" />
        </mxCell>
        <mxCell id="6CjDDkoMT4c5D2JE9bkO-1" value="MATERIA&amp;nbsp; PRIMA:" style="text;html=1;align=center;verticalAlign=middle;resizable=0;points=[];autosize=1;strokeColor=none;fillColor=none;" parent="1" vertex="1">
          <mxGeometry x="710" y="530" width="120" height="30" as="geometry" />
        </mxCell>
        <mxCell id="c6dacoeFf7avZnoMAAf1-1" value="" style="image;html=1;image=img/lib/clip_art/computers/Database_Add_128x128.png" parent="1" vertex="1">
          <mxGeometry x="850" y="530" width="80" height="25" as="geometry" />
        </mxCell>
        <mxCell id="oqnCj1hNw9i8I5VsdmDV-1" value="" style="html=1;verticalLabelPosition=bottom;align=center;labelBackgroundColor=#ffffff;verticalAlign=top;strokeWidth=2;strokeColor=#0080F0;shadow=0;dashed=0;shape=mxgraph.ios7.icons.add;" parent="1" vertex="1">
          <mxGeometry x="910" y="527.5" width="30" height="30" as="geometry" />
        </mxCell>
        <mxCell id="jM1_ZKdr_Kyd4J0CT7nw-1" value="" style="rounded=1;whiteSpace=wrap;html=1;fillColor=#f5f5f5;gradientColor=#b3b3b3;strokeColor=#666666;" parent="1" vertex="1">
          <mxGeometry x="620" y="585" width="210" height="30" as="geometry" />
        </mxCell>
        <mxCell id="jM1_ZKdr_Kyd4J0CT7nw-2" value="PRODUTO:" style="text;html=1;align=center;verticalAlign=middle;resizable=0;points=[];autosize=1;strokeColor=none;fillColor=none;" parent="1" vertex="1">
          <mxGeometry x="620" y="585" width="90" height="30" as="geometry" />
        </mxCell>
        <mxCell id="jM1_ZKdr_Kyd4J0CT7nw-3" value="" style="rounded=1;whiteSpace=wrap;html=1;fillColor=#f5f5f5;gradientColor=#b3b3b3;strokeColor=#666666;" parent="1" vertex="1">
          <mxGeometry x="615" y="650" width="220" height="30" as="geometry" />
        </mxCell>
        <mxCell id="jM1_ZKdr_Kyd4J0CT7nw-4" value="QUANTIDADE:" style="text;html=1;align=center;verticalAlign=middle;resizable=0;points=[];autosize=1;strokeColor=none;fillColor=none;" parent="1" vertex="1">
          <mxGeometry x="615" y="650" width="110" height="30" as="geometry" />
        </mxCell>
        <mxCell id="jM1_ZKdr_Kyd4J0CT7nw-5" value="" style="rounded=1;whiteSpace=wrap;html=1;fillColor=#f5f5f5;gradientColor=#b3b3b3;strokeColor=#666666;" parent="1" vertex="1">
          <mxGeometry x="620" y="710" width="210" height="30" as="geometry" />
        </mxCell>
        <mxCell id="dbdYankbWTFeU3QdJmu_-1" value="" style="rounded=1;whiteSpace=wrap;html=1;fillColor=#dae8fc;gradientColor=#7ea6e0;strokeColor=#6c8ebf;" parent="1" vertex="1">
          <mxGeometry x="690" y="778" width="180" height="40" as="geometry" />
        </mxCell>
        <mxCell id="dbdYankbWTFeU3QdJmu_-2" value="CADASTRAR" style="text;html=1;align=center;verticalAlign=middle;resizable=0;points=[];autosize=1;strokeColor=none;fillColor=none;" parent="1" vertex="1">
          <mxGeometry x="735" y="783" width="100" height="30" as="geometry" />
        </mxCell>
        <mxCell id="fjs3b2r-TC-KTA-4z9_h-1" value="" style="image;html=1;image=img/lib/clip_art/computers/Database_Add_128x128.png" parent="1" vertex="1">
          <mxGeometry x="630" y="870" width="536" height="40" as="geometry" />
        </mxCell>
        <mxCell id="fIUfWwwRF920jfCbVKZU-1" value="" style="image;html=1;image=img/lib/atlassian/Bamboo_Logo.svg;" parent="1" vertex="1">
          <mxGeometry x="920" y="870" width="30" height="40" as="geometry" />
        </mxCell>
        <mxCell id="fIUfWwwRF920jfCbVKZU-2" value="" style="shape=ext;double=1;rounded=1;whiteSpace=wrap;html=1;" parent="1" vertex="1">
          <mxGeometry x="1040" y="155" width="390" height="770" as="geometry" />
        </mxCell>
        <mxCell id="fIUfWwwRF920jfCbVKZU-3" value="Venda do Produto" style="text;strokeColor=none;fillColor=none;html=1;fontSize=24;fontStyle=1;verticalAlign=middle;align=center;" parent="1" vertex="1">
          <mxGeometry x="1180" y="190" width="100" height="40" as="geometry" />
        </mxCell>
        <mxCell id="fIUfWwwRF920jfCbVKZU-4" value="TECIDO:" style="text;html=1;align=center;verticalAlign=middle;resizable=0;points=[];autosize=1;strokeColor=none;fillColor=none;" parent="1" vertex="1">
          <mxGeometry x="620" y="710" width="70" height="30" as="geometry" />
        </mxCell>
        <mxCell id="fIUfWwwRF920jfCbVKZU-5" value="&lt;span style=&quot;white-space: pre;&quot;&gt;&#x9;&lt;/span&gt;CLIENTE:" style="text;html=1;align=center;verticalAlign=middle;resizable=0;points=[];autosize=1;strokeColor=none;fillColor=none;" parent="1" vertex="1">
          <mxGeometry x="1040" y="265" width="100" height="30" as="geometry" />
        </mxCell>
        <mxCell id="WVxY0V2kwf61FWmF2ItO-2" value="" style="rounded=1;whiteSpace=wrap;html=1;fillColor=#f5f5f5;gradientColor=#b3b3b3;strokeColor=#666666;" parent="1" vertex="1">
          <mxGeometry x="1060" y="300" width="220" height="30" as="geometry" />
        </mxCell>
        <mxCell id="DHmipkL91U4DoufbiHay-1" value="&lt;span style=&quot;white-space: pre;&quot;&gt;&#x9;&lt;span style=&quot;white-space: pre;&quot;&gt;&#x9;&lt;/span&gt;&lt;span style=&quot;white-space: pre;&quot;&gt;&#x9;&lt;span style=&quot;white-space: pre;&quot;&gt;&#x9;&lt;/span&gt;TELEFONE:&lt;/span&gt;&lt;/span&gt;" style="text;html=1;align=center;verticalAlign=middle;resizable=0;points=[];autosize=1;strokeColor=none;fillColor=none;" parent="1" vertex="1">
          <mxGeometry x="960" y="370" width="200" height="30" as="geometry" />
        </mxCell>
        <mxCell id="DHmipkL91U4DoufbiHay-2" value="" style="rounded=1;whiteSpace=wrap;html=1;fillColor=#f5f5f5;gradientColor=#b3b3b3;strokeColor=#666666;" parent="1" vertex="1">
          <mxGeometry x="1050" y="420" width="220" height="30" as="geometry" />
        </mxCell>
        <mxCell id="GZdeDfheu5WA-V9x1vxd-1" value="ITENS:" style="text;html=1;align=center;verticalAlign=middle;resizable=0;points=[];autosize=1;strokeColor=none;fillColor=none;" parent="1" vertex="1">
          <mxGeometry x="1190" y="530" width="60" height="30" as="geometry" />
        </mxCell>
        <mxCell id="GZdeDfheu5WA-V9x1vxd-2" value="" style="html=1;verticalLabelPosition=bottom;align=center;labelBackgroundColor=#ffffff;verticalAlign=top;strokeWidth=2;strokeColor=#0080F0;shadow=0;dashed=0;shape=mxgraph.ios7.icons.add;" parent="1" vertex="1">
          <mxGeometry x="1330" y="530" width="30" height="30" as="geometry" />
        </mxCell>
        <mxCell id="GZdeDfheu5WA-V9x1vxd-3" value="" style="rounded=1;whiteSpace=wrap;html=1;fillColor=#f5f5f5;gradientColor=#b3b3b3;strokeColor=#666666;" parent="1" vertex="1">
          <mxGeometry x="1065" y="600" width="210" height="30" as="geometry" />
        </mxCell>
        <mxCell id="GZdeDfheu5WA-V9x1vxd-4" value="PRODUTO:" style="text;html=1;align=center;verticalAlign=middle;resizable=0;points=[];autosize=1;strokeColor=none;fillColor=none;" parent="1" vertex="1">
          <mxGeometry x="1065" y="600" width="90" height="30" as="geometry" />
        </mxCell>
        <mxCell id="GZdeDfheu5WA-V9x1vxd-5" value="" style="rounded=1;whiteSpace=wrap;html=1;fillColor=#f5f5f5;gradientColor=#b3b3b3;strokeColor=#666666;" parent="1" vertex="1">
          <mxGeometry x="1060" y="660" width="220" height="30" as="geometry" />
        </mxCell>
        <mxCell id="GZdeDfheu5WA-V9x1vxd-6" value="QUANTIDADE:" style="text;html=1;align=center;verticalAlign=middle;resizable=0;points=[];autosize=1;strokeColor=none;fillColor=none;" parent="1" vertex="1">
          <mxGeometry x="1065" y="660" width="110" height="30" as="geometry" />
        </mxCell>
        <mxCell id="GZdeDfheu5WA-V9x1vxd-8" value="" style="rounded=1;whiteSpace=wrap;html=1;fillColor=#f5f5f5;gradientColor=#b3b3b3;strokeColor=#666666;" parent="1" vertex="1">
          <mxGeometry x="1065" y="720" width="210" height="30" as="geometry" />
        </mxCell>
        <mxCell id="GZdeDfheu5WA-V9x1vxd-9" value="UNIDADE DE MEDIDA:" style="text;html=1;align=center;verticalAlign=middle;resizable=0;points=[];autosize=1;strokeColor=none;fillColor=none;" parent="1" vertex="1">
          <mxGeometry x="1065" y="720" width="150" height="30" as="geometry" />
        </mxCell>
        <mxCell id="z4ocWF7VMp2Jx0HWjKTp-1" value="VALOR:" style="text;html=1;align=center;verticalAlign=middle;resizable=0;points=[];autosize=1;strokeColor=none;fillColor=none;" parent="1" vertex="1">
          <mxGeometry x="1241" y="778" width="70" height="30" as="geometry" />
        </mxCell>
        <mxCell id="NYEk8O8_OxhMa8D6d5Mz-1" value="" style="rounded=1;whiteSpace=wrap;html=1;" parent="1" vertex="1">
          <mxGeometry x="1311" y="773" width="110" height="35" as="geometry" />
        </mxCell>
        <mxCell id="NYEk8O8_OxhMa8D6d5Mz-2" value="" style="rounded=1;whiteSpace=wrap;html=1;fillColor=#dae8fc;gradientColor=#7ea6e0;strokeColor=#6c8ebf;" parent="1" vertex="1">
          <mxGeometry x="1145" y="818" width="180" height="40" as="geometry" />
        </mxCell>
        <mxCell id="NYEk8O8_OxhMa8D6d5Mz-3" value="FINALIZAR" style="text;html=1;align=center;verticalAlign=middle;resizable=0;points=[];autosize=1;strokeColor=none;fillColor=none;" parent="1" vertex="1">
          <mxGeometry x="1195" y="823" width="80" height="30" as="geometry" />
        </mxCell>
        <mxCell id="b-xmtPvZruRTLkNTaUzI-1" value="" style="rounded=1;whiteSpace=wrap;html=1;fillColor=#f8cecc;gradientColor=#ea6b66;strokeColor=#b85450;" parent="1" vertex="1">
          <mxGeometry x="-110" y="275" width="170" height="90" as="geometry" />
        </mxCell>
        <mxCell id="u9csPRoYPJB8TmRjqdFT-1" value="BUSCA NÃO ENCONTRADA" style="text;html=1;align=center;verticalAlign=middle;resizable=0;points=[];autosize=1;strokeColor=none;fillColor=none;" parent="1" vertex="1">
          <mxGeometry x="-115" y="305" width="180" height="30" as="geometry" />
        </mxCell>
        <mxCell id="OKX0PPEJ5TysyOi0s5-1-1" value="" style="rounded=1;whiteSpace=wrap;html=1;fillColor=#f8cecc;gradientColor=#ea6b66;strokeColor=#b85450;" parent="1" vertex="1">
          <mxGeometry x="-110" y="410" width="170" height="85" as="geometry" />
        </mxCell>
        <mxCell id="q39zHBa7x9cRbBLQYKRu-1" value="DADOS INVALÍDOS." style="text;html=1;align=center;verticalAlign=middle;resizable=0;points=[];autosize=1;strokeColor=none;fillColor=none;" parent="1" vertex="1">
          <mxGeometry x="-95" y="410" width="140" height="30" as="geometry" />
        </mxCell>
        <mxCell id="TzX4FtQDhrICClR-3cYs-1" value="" style="rounded=1;whiteSpace=wrap;html=1;" parent="1" vertex="1">
          <mxGeometry x="1540" y="190" width="180" height="85" as="geometry" />
        </mxCell>
        <mxCell id="I6izCvTCHLxUkgodBNw1-1" value="EXCLUIR PRODUTO:" style="text;html=1;align=center;verticalAlign=middle;resizable=0;points=[];autosize=1;strokeColor=none;fillColor=none;" parent="1" vertex="1">
          <mxGeometry x="1560" y="190" width="140" height="30" as="geometry" />
        </mxCell>
        <mxCell id="KzTOVDgXwzC6XCVqMiLL-1" value="SIM" style="rounded=1;whiteSpace=wrap;html=1;fillColor=#d5e8d4;gradientColor=#97d077;strokeColor=#82b366;" parent="1" vertex="1">
          <mxGeometry x="1550" y="232.5" width="80" height="30" as="geometry" />
        </mxCell>
        <mxCell id="yy7Y1bWuksSfP6jSckgA-1" value="NÃO" style="rounded=1;whiteSpace=wrap;html=1;fillColor=#f8cecc;gradientColor=#ea6b66;strokeColor=#b85450;" parent="1" vertex="1">
          <mxGeometry x="1640" y="230" width="80" height="35" as="geometry" />
        </mxCell>
        <mxCell id="Pi5p6-6MSrKw3AmD8fUR-1" value="CADASTRO ATUALIZADO." style="shape=ext;double=1;rounded=1;whiteSpace=wrap;html=1;fillColor=#d5e8d4;strokeColor=#82b366;gradientColor=#97d077;" parent="1" vertex="1">
          <mxGeometry x="1550" y="320" width="170" height="80" as="geometry" />
        </mxCell>
        <mxCell id="KOTVzbYP7trOaykONQlx-1" value="CADASTRO BEM SUCEDIDO COM SUCESSO." style="shape=ext;double=1;rounded=1;whiteSpace=wrap;html=1;fillColor=#d5e8d4;strokeColor=#82b366;gradientColor=#97d077;" parent="1" vertex="1">
          <mxGeometry x="1550" y="437.5" width="170" height="80" as="geometry" />
        </mxCell>
        <mxCell id="4b0tveiRLoF6t4OFoY5V-1" value="" style="rounded=1;whiteSpace=wrap;html=1;" parent="1" vertex="1">
          <mxGeometry x="1560" y="549.75" width="160" height="100.5" as="geometry" />
        </mxCell>
        <mxCell id="-Wl-yZPlF0bBRJgvuNyS-1" value="DESEJA ATUALIZAR?" style="text;html=1;align=center;verticalAlign=middle;resizable=0;points=[];autosize=1;strokeColor=none;fillColor=none;" parent="1" vertex="1">
          <mxGeometry x="1570" y="549.75" width="140" height="30" as="geometry" />
        </mxCell>
        <mxCell id="sAtnXwN0o3-4CNdOBIxv-1" value="SIM" style="rounded=1;whiteSpace=wrap;html=1;fillColor=#d5e8d4;gradientColor=#97d077;strokeColor=#82b366;" parent="1" vertex="1">
          <mxGeometry x="1560" y="600" width="80" height="30" as="geometry" />
        </mxCell>
        <mxCell id="8P2kBw2kUpfOOm7exp2T-1" value="NÃO" style="rounded=1;whiteSpace=wrap;html=1;fillColor=#f8cecc;gradientColor=#ea6b66;strokeColor=#b85450;" parent="1" vertex="1">
          <mxGeometry x="1640" y="600" width="80" height="32.5" as="geometry" />
        </mxCell>
        <mxCell id="NKYEP0MFKLwxj7-88X88-1" value="TEM CERTEZA QUE DESEJA APAGAR?" style="rounded=1;whiteSpace=wrap;html=1;" vertex="1" parent="1">
          <mxGeometry x="-115" y="549.75" width="200" height="100" as="geometry" />
        </mxCell>
        <mxCell id="QVwcymTk214ThVmsR214-1" value="" style="verticalLabelPosition=bottom;html=1;verticalAlign=top;align=center;strokeColor=none;fillColor=#00BEF2;shape=mxgraph.azure.azure_alert;" vertex="1" parent="1">
          <mxGeometry x="-35" y="550" width="40" height="30" as="geometry" />
        </mxCell>
        <mxCell id="DirdaWw0no5qWdPJsovB-1" value="SIM" style="rounded=1;whiteSpace=wrap;html=1;fillColor=#d5e8d4;gradientColor=#97d077;strokeColor=#82b366;" vertex="1" parent="1">
          <mxGeometry x="-110" y="615" width="80" height="30" as="geometry" />
        </mxCell>
        <mxCell id="qUSYUVxv_RUdYw8w9Y8w-1" value="NÃO" style="rounded=1;whiteSpace=wrap;html=1;fillColor=#f8cecc;gradientColor=#ea6b66;strokeColor=#b85450;" vertex="1" parent="1">
          <mxGeometry x="-15" y="615" width="80" height="30" as="geometry" />
        </mxCell>
        <mxCell id="gGaxO5VRW2zc19XzIe9K-1" style="edgeStyle=orthogonalEdgeStyle;rounded=0;orthogonalLoop=1;jettySize=auto;html=1;exitX=0.5;exitY=1;exitDx=0;exitDy=0;" edge="1" parent="1" source="sVeEHbbh7IfBRgkn-Utb-14" target="sVeEHbbh7IfBRgkn-Utb-14">
          <mxGeometry relative="1" as="geometry" />
        </mxCell>
        <mxCell id="S3ddhu_d-nbG5MDGtnk4-1" value="" style="shape=mxgraph.mockup.markup.redX;fillColor=#ff0000;html=1;shadow=0;whiteSpace=wrap;strokeColor=none;" vertex="1" parent="1">
          <mxGeometry x="-50" y="440" width="50" height="40" as="geometry" />
        </mxCell>
      </root>
    </mxGraphModel>
  </diagram>
  <diagram id="AvTBY4wJD-7BD30gu5ro" name="Página-5">
    <mxGraphModel dx="1434" dy="782" grid="1" gridSize="10" guides="1" tooltips="1" connect="1" arrows="1" fold="1" page="1" pageScale="1" pageWidth="827" pageHeight="1169" math="0" shadow="0">
      <root>
        <mxCell id="0" />
        <mxCell id="1" parent="0" />
        <mxCell id="91Kzuuua7Fiunyj9dWDN-1" value="" style="shape=ext;double=1;rounded=1;whiteSpace=wrap;html=1;" parent="1" vertex="1">
          <mxGeometry x="240" y="130" width="390" height="770" as="geometry" />
        </mxCell>
        <mxCell id="fIbmQh_pnshG3nmEMWh1-1" value="Busca de Matéria Prima" style="text;strokeColor=none;fillColor=none;html=1;fontSize=24;fontStyle=1;verticalAlign=middle;align=center;" parent="1" vertex="1">
          <mxGeometry x="380" y="160" width="100" height="40" as="geometry" />
        </mxCell>
        <mxCell id="O15phk0vPUkQ3TSLXt2q-1" value="BUSCAR:" style="text;html=1;align=center;verticalAlign=middle;resizable=0;points=[];autosize=1;strokeColor=none;fillColor=none;" parent="1" vertex="1">
          <mxGeometry x="260" y="230" width="80" height="30" as="geometry" />
        </mxCell>
        <mxCell id="eTX7HuP7fy4x8wkMmRFc-1" value="&lt;span style=&quot;color: rgba(0, 0, 0, 0); font-family: monospace; font-size: 0px; text-align: start; text-wrap: nowrap;&quot;&gt;%3CmxGraphModel%3E%3Croot%3E%3CmxCell%20id%3D%220%22%2F%3E%3CmxCell%20id%3D%221%22%20parent%3D%220%22%2F%3E%3CmxCell%20id%3D%222%22%20value%3D%22%22%20style%3D%22rounded%3D1%3BwhiteSpace%3Dwrap%3Bhtml%3D1%3BfillColor%3D%23f5f5f5%3BgradientColor%3D%23b3b3b3%3BstrokeColor%3D%23666666%3B%22%20vertex%3D%221%22%20parent%3D%221%22%3E%3CmxGeometry%20x%3D%22260%22%20y%3D%22270%22%20width%3D%22220%22%20height%3D%2230%22%20as%3D%22geometry%22%2F%3E%3C%2FmxCell%3E%3C%2Froot%3E%3C%2FmxGraphModel%3E&lt;/span&gt;" style="rounded=1;whiteSpace=wrap;html=1;fillColor=#f5f5f5;gradientColor=#b3b3b3;strokeColor=#666666;" parent="1" vertex="1">
          <mxGeometry x="260" y="270" width="220" height="30" as="geometry" />
        </mxCell>
        <mxCell id="eTX7HuP7fy4x8wkMmRFc-2" value="" style="rounded=1;whiteSpace=wrap;html=1;fillColor=#f5f5f5;gradientColor=#b3b3b3;strokeColor=#666666;" parent="1" vertex="1">
          <mxGeometry x="260" y="320" width="220" height="30" as="geometry" />
        </mxCell>
        <mxCell id="eTX7HuP7fy4x8wkMmRFc-3" value="" style="rounded=1;whiteSpace=wrap;html=1;fillColor=#f5f5f5;gradientColor=#b3b3b3;strokeColor=#666666;fontStyle=1" parent="1" vertex="1">
          <mxGeometry x="260" y="370" width="220" height="30" as="geometry" />
        </mxCell>
        <mxCell id="eTX7HuP7fy4x8wkMmRFc-4" value="" style="rounded=1;whiteSpace=wrap;html=1;fillColor=#f5f5f5;gradientColor=#b3b3b3;strokeColor=#666666;" parent="1" vertex="1">
          <mxGeometry x="260" y="420" width="220" height="30" as="geometry" />
        </mxCell>
        <mxCell id="eTX7HuP7fy4x8wkMmRFc-5" value="" style="rounded=1;whiteSpace=wrap;html=1;fillColor=#f5f5f5;gradientColor=#b3b3b3;strokeColor=#666666;" parent="1" vertex="1">
          <mxGeometry x="260" y="480" width="220" height="30" as="geometry" />
        </mxCell>
        <mxCell id="eTX7HuP7fy4x8wkMmRFc-6" value="" style="rounded=1;whiteSpace=wrap;html=1;fillColor=#f5f5f5;gradientColor=#b3b3b3;strokeColor=#666666;" parent="1" vertex="1">
          <mxGeometry x="260" y="540" width="220" height="30" as="geometry" />
        </mxCell>
        <mxCell id="eTX7HuP7fy4x8wkMmRFc-7" value="" style="rounded=1;whiteSpace=wrap;html=1;fillColor=#f5f5f5;gradientColor=#b3b3b3;strokeColor=#666666;" parent="1" vertex="1">
          <mxGeometry x="260" y="610" width="220" height="30" as="geometry" />
        </mxCell>
        <mxCell id="eTX7HuP7fy4x8wkMmRFc-8" value="" style="rounded=1;whiteSpace=wrap;html=1;fillColor=#f5f5f5;gradientColor=#b3b3b3;strokeColor=#666666;" parent="1" vertex="1">
          <mxGeometry x="260" y="680" width="220" height="30" as="geometry" />
        </mxCell>
        <mxCell id="eTX7HuP7fy4x8wkMmRFc-9" value="" style="rounded=1;whiteSpace=wrap;html=1;fillColor=#f5f5f5;gradientColor=#b3b3b3;strokeColor=#666666;" parent="1" vertex="1">
          <mxGeometry x="260" y="760" width="220" height="30" as="geometry" />
        </mxCell>
        <mxCell id="9Bfr8FKb9-3Nu6zTacq1-1" value="" style="shape=ext;double=1;rounded=1;whiteSpace=wrap;html=1;" parent="1" vertex="1">
          <mxGeometry x="700" y="130" width="380" height="780" as="geometry" />
        </mxCell>
        <mxCell id="VWp7iu3xypnCplMI7INC-1" value="Cadastro de Matéria Prima" style="text;strokeColor=none;fillColor=none;html=1;fontSize=24;fontStyle=1;verticalAlign=middle;align=center;" parent="1" vertex="1">
          <mxGeometry x="840" y="160" width="100" height="40" as="geometry" />
        </mxCell>
        <mxCell id="VWp7iu3xypnCplMI7INC-2" value="PRODUTO:" style="text;html=1;align=center;verticalAlign=middle;resizable=0;points=[];autosize=1;strokeColor=none;fillColor=none;" parent="1" vertex="1">
          <mxGeometry x="730" y="240" width="90" height="30" as="geometry" />
        </mxCell>
        <mxCell id="VWp7iu3xypnCplMI7INC-3" value="&lt;span style=&quot;color: rgba(0, 0, 0, 0); font-family: monospace; font-size: 0px; text-align: start; text-wrap: nowrap;&quot;&gt;%3CmxGraphModel%3E%3Croot%3E%3CmxCell%20id%3D%220%22%2F%3E%3CmxCell%20id%3D%221%22%20parent%3D%220%22%2F%3E%3CmxCell%20id%3D%222%22%20value%3D%22%22%20style%3D%22rounded%3D1%3BwhiteSpace%3Dwrap%3Bhtml%3D1%3BfillColor%3D%23f5f5f5%3BgradientColor%3D%23b3b3b3%3BstrokeColor%3D%23666666%3B%22%20vertex%3D%221%22%20parent%3D%221%22%3E%3CmxGeometry%20x%3D%22260%22%20y%3D%22270%22%20width%3D%22220%22%20height%3D%2230%22%20as%3D%22geometry%22%2F%3E%3C%2FmxCell%3E%3C%2Froot%3E%3C%2FmxGraphModel%3E&lt;/span&gt;" style="rounded=1;whiteSpace=wrap;html=1;fillColor=#f5f5f5;gradientColor=#b3b3b3;strokeColor=#666666;" parent="1" vertex="1">
          <mxGeometry x="720" y="400" width="220" height="30" as="geometry" />
        </mxCell>
        <mxCell id="VWp7iu3xypnCplMI7INC-4" value="UNIDADE DO PRODUTO:" style="text;html=1;align=center;verticalAlign=middle;resizable=0;points=[];autosize=1;strokeColor=none;fillColor=none;" parent="1" vertex="1">
          <mxGeometry x="720" y="350" width="170" height="30" as="geometry" />
        </mxCell>
        <mxCell id="VWp7iu3xypnCplMI7INC-5" value="&lt;span style=&quot;color: rgba(0, 0, 0, 0); font-family: monospace; font-size: 0px; text-align: start; text-wrap: nowrap;&quot;&gt;%3CmxGraphModel%3E%3Croot%3E%3CmxCell%20id%3D%220%22%2F%3E%3CmxCell%20id%3D%221%22%20parent%3D%220%22%2F%3E%3CmxCell%20id%3D%222%22%20value%3D%22%22%20style%3D%22rounded%3D1%3BwhiteSpace%3Dwrap%3Bhtml%3D1%3BfillColor%3D%23f5f5f5%3BgradientColor%3D%23b3b3b3%3BstrokeColor%3D%23666666%3B%22%20vertex%3D%221%22%20parent%3D%221%22%3E%3CmxGeometry%20x%3D%22260%22%20y%3D%22270%22%20width%3D%22220%22%20height%3D%2230%22%20as%3D%22geometry%22%2F%3E%3C%2FmxCell%3E%3C%2Froot%3E%3C%2FmxGraphModel%3E&lt;/span&gt;" style="rounded=1;whiteSpace=wrap;html=1;fillColor=#f5f5f5;gradientColor=#b3b3b3;strokeColor=#666666;" parent="1" vertex="1">
          <mxGeometry x="730" y="290" width="220" height="30" as="geometry" />
        </mxCell>
        <mxCell id="VWp7iu3xypnCplMI7INC-11" value="" style="triangle;whiteSpace=wrap;html=1;direction=south;" parent="1" vertex="1">
          <mxGeometry x="910" y="405" width="30" height="20" as="geometry" />
        </mxCell>
        <mxCell id="VWp7iu3xypnCplMI7INC-12" value="UNIDADE:" style="text;html=1;align=center;verticalAlign=middle;resizable=0;points=[];autosize=1;strokeColor=none;fillColor=none;" parent="1" vertex="1">
          <mxGeometry x="730" y="400" width="80" height="30" as="geometry" />
        </mxCell>
        <mxCell id="tuVaDXi049IM3QPuYGEc-1" value="" style="rounded=1;whiteSpace=wrap;html=1;fillColor=#d5e8d4;gradientColor=#97d077;strokeColor=#82b366;" parent="1" vertex="1">
          <mxGeometry x="810" y="600" width="120" height="40" as="geometry" />
        </mxCell>
        <mxCell id="tuVaDXi049IM3QPuYGEc-2" value="SALVAR" style="text;html=1;align=center;verticalAlign=middle;resizable=0;points=[];autosize=1;strokeColor=none;fillColor=none;" parent="1" vertex="1">
          <mxGeometry x="840" y="605" width="70" height="30" as="geometry" />
        </mxCell>
        <mxCell id="tuVaDXi049IM3QPuYGEc-3" value="" style="rounded=1;whiteSpace=wrap;html=1;fillColor=#f8cecc;gradientColor=#ea6b66;strokeColor=#b85450;" parent="1" vertex="1">
          <mxGeometry x="810" y="640" width="120" height="40" as="geometry" />
        </mxCell>
        <mxCell id="tuVaDXi049IM3QPuYGEc-4" value="CANCELAR" style="text;html=1;align=center;verticalAlign=middle;resizable=0;points=[];autosize=1;" parent="1" vertex="1">
          <mxGeometry x="825" y="645" width="90" height="30" as="geometry" />
        </mxCell>
        <mxCell id="inwsVALy_j3u7ZYUPQZl-2" style="edgeStyle=orthogonalEdgeStyle;rounded=0;orthogonalLoop=1;jettySize=auto;html=1;exitX=0;exitY=0.75;exitDx=0;exitDy=0;" parent="1" source="PZsv6TbZFcxOuhwNkPmX-1" edge="1">
          <mxGeometry relative="1" as="geometry">
            <mxPoint x="1140" y="715" as="targetPoint" />
          </mxGeometry>
        </mxCell>
        <mxCell id="PZsv6TbZFcxOuhwNkPmX-1" value="" style="shape=ext;double=1;rounded=1;whiteSpace=wrap;html=1;" parent="1" vertex="1">
          <mxGeometry x="1150" y="130" width="380" height="780" as="geometry" />
        </mxCell>
        <mxCell id="PZsv6TbZFcxOuhwNkPmX-2" value="Compra de Matéria Prima" style="text;strokeColor=none;fillColor=none;html=1;fontSize=24;fontStyle=1;verticalAlign=middle;align=center;" parent="1" vertex="1">
          <mxGeometry x="1280" y="160" width="100" height="40" as="geometry" />
        </mxCell>
        <mxCell id="PZsv6TbZFcxOuhwNkPmX-3" value="FORNECEDOR:" style="text;html=1;align=center;verticalAlign=middle;resizable=0;points=[];autosize=1;strokeColor=none;fillColor=none;" parent="1" vertex="1">
          <mxGeometry x="1170" y="230" width="110" height="30" as="geometry" />
        </mxCell>
        <mxCell id="PZsv6TbZFcxOuhwNkPmX-4" value="&lt;span style=&quot;color: rgba(0, 0, 0, 0); font-family: monospace; font-size: 0px; text-align: start; text-wrap: nowrap;&quot;&gt;%3CmxGraphModel%3E%3Croot%3E%3CmxCell%20id%3D%220%22%2F%3E%3CmxCell%20id%3D%221%22%20parent%3D%220%22%2F%3E%3CmxCell%20id%3D%222%22%20value%3D%22%22%20style%3D%22rounded%3D1%3BwhiteSpace%3Dwrap%3Bhtml%3D1%3BfillColor%3D%23f5f5f5%3BgradientColor%3D%23b3b3b3%3BstrokeColor%3D%23666666%3B%22%20vertex%3D%221%22%20parent%3D%221%22%3E%3CmxGeometry%20x%3D%22260%22%20y%3D%22270%22%20width%3D%22220%22%20height%3D%2230%22%20as%3D%22geometry%22%2F%3E%3C%2FmxCell%3E%3C%2Froot%3E%3C%2FmxGraphModel%3E&lt;/span&gt;" style="rounded=1;whiteSpace=wrap;html=1;fillColor=#f5f5f5;gradientColor=#b3b3b3;strokeColor=#666666;" parent="1" vertex="1">
          <mxGeometry x="1170" y="280" width="220" height="30" as="geometry" />
        </mxCell>
        <mxCell id="PZsv6TbZFcxOuhwNkPmX-5" value="DESCRIÇÃO DO PRODUTO:" style="text;html=1;align=center;verticalAlign=middle;resizable=0;points=[];autosize=1;strokeColor=none;fillColor=none;" parent="1" vertex="1">
          <mxGeometry x="1160" y="340" width="180" height="30" as="geometry" />
        </mxCell>
        <mxCell id="PZsv6TbZFcxOuhwNkPmX-6" value="&lt;span style=&quot;color: rgba(0, 0, 0, 0); font-family: monospace; font-size: 0px; text-align: start; text-wrap: nowrap;&quot;&gt;%3CmxGraphModel%3E%3Croot%3E%3CmxCell%20id%3D%220%22%2F%3E%3CmxCell%20id%3D%221%22%20parent%3D%220%22%2F%3E%3CmxCell%20id%3D%222%22%20value%3D%22%22%20style%3D%22rounded%3D1%3BwhiteSpace%3Dwrap%3Bhtml%3D1%3BfillColor%3D%23f5f5f5%3BgradientColor%3D%23b3b3b3%3BstrokeColor%3D%23666666%3B%22%20vertex%3D%221%22%20parent%3D%221%22%3E%3CmxGeometry%20x%3D%22260%22%20y%3D%22270%22%20width%3D%22220%22%20height%3D%2230%22%20as%3D%22geometry%22%2F%3E%3C%2FmxCell%3E%3C%2Froot%3E%3C%2FmxGraphModel%3E&lt;/span&gt;" style="rounded=1;whiteSpace=wrap;html=1;fillColor=#f5f5f5;gradientColor=#b3b3b3;strokeColor=#666666;" parent="1" vertex="1">
          <mxGeometry x="1160" y="395" width="220" height="30" as="geometry" />
        </mxCell>
        <mxCell id="jNralMb1H5n6VWBtOOni-1" value="CUSTO DA MATÉRIA PRIMA:" style="text;html=1;align=center;verticalAlign=middle;resizable=0;points=[];autosize=1;strokeColor=none;fillColor=none;" parent="1" vertex="1">
          <mxGeometry x="1160" y="470" width="180" height="30" as="geometry" />
        </mxCell>
        <mxCell id="jNralMb1H5n6VWBtOOni-2" value="&lt;span style=&quot;color: rgba(0, 0, 0, 0); font-family: monospace; font-size: 0px; text-align: start; text-wrap: nowrap;&quot;&gt;%3CmxGraphModel%3E%3Croot%3E%3CmxCell%20id%3D%220%22%2F%3E%3CmxCell%20id%3D%221%22%20parent%3D%220%22%2F%3E%3CmxCell%20id%3D%222%22%20value%3D%22%22%20style%3D%22rounded%3D1%3BwhiteSpace%3Dwrap%3Bhtml%3D1%3BfillColor%3D%23f5f5f5%3BgradientColor%3D%23b3b3b3%3BstrokeColor%3D%23666666%3B%22%20vertex%3D%221%22%20parent%3D%221%22%3E%3CmxGeometry%20x%3D%22260%22%20y%3D%22270%22%20width%3D%22220%22%20height%3D%2230%22%20as%3D%22geometry%22%2F%3E%3C%2FmxCell%3E%3C%2Froot%3E%3C%2FmxGraphModel%3E&lt;/span&gt;" style="rounded=1;whiteSpace=wrap;html=1;fillColor=#f5f5f5;gradientColor=#b3b3b3;strokeColor=#666666;" parent="1" vertex="1">
          <mxGeometry x="1160" y="530" width="220" height="30" as="geometry" />
        </mxCell>
        <mxCell id="U8DjW8UqC0f7qiCZa6rH-1" value="VALOR:" style="text;html=1;align=center;verticalAlign=middle;resizable=0;points=[];autosize=1;strokeColor=none;fillColor=none;" parent="1" vertex="1">
          <mxGeometry x="1350" y="660" width="70" height="30" as="geometry" />
        </mxCell>
        <mxCell id="Y7FN5S-5ZAyqPPiW6oI2-1" value="" style="rounded=1;whiteSpace=wrap;html=1;" parent="1" vertex="1">
          <mxGeometry x="1410" y="657.5" width="110" height="35" as="geometry" />
        </mxCell>
        <mxCell id="qcT2aghV1eHLyHg5pDvQ-1" value="" style="html=1;verticalLabelPosition=bottom;align=center;labelBackgroundColor=#ffffff;verticalAlign=top;strokeWidth=2;strokeColor=#0080F0;shadow=0;dashed=0;shape=mxgraph.ios7.icons.add;" parent="1" vertex="1">
          <mxGeometry x="1470" y="585" width="30" height="30" as="geometry" />
        </mxCell>
        <mxCell id="8g8s07c8DUrbotDIg-QL-1" value="" style="rounded=1;whiteSpace=wrap;html=1;fillColor=#dae8fc;gradientColor=#7ea6e0;strokeColor=#6c8ebf;" parent="1" vertex="1">
          <mxGeometry x="1250" y="760" width="180" height="40" as="geometry" />
        </mxCell>
        <mxCell id="MmnGGpEKJZ52xhA86Suf-1" value="FINALIZAR" style="text;html=1;align=center;verticalAlign=middle;resizable=0;points=[];autosize=1;strokeColor=none;fillColor=none;" parent="1" vertex="1">
          <mxGeometry x="1300" y="765" width="80" height="30" as="geometry" />
        </mxCell>
        <mxCell id="QnKsBKJNis1rUouhRVeG-1" value="" style="rounded=1;whiteSpace=wrap;html=1;" parent="1" vertex="1">
          <mxGeometry x="1590" y="155" width="180" height="85" as="geometry" />
        </mxCell>
        <mxCell id="VK_Ks7JT6UFZOgUh_OCt-1" value="EXCLUIR MATÉRIA PRIMA:" style="text;html=1;align=center;verticalAlign=middle;resizable=0;points=[];autosize=1;strokeColor=none;fillColor=none;" parent="1" vertex="1">
          <mxGeometry x="1590" y="160" width="180" height="30" as="geometry" />
        </mxCell>
        <mxCell id="pKFfu7cdmFRRR01nF2E6-1" value="SIM" style="rounded=1;whiteSpace=wrap;html=1;fillColor=#d5e8d4;gradientColor=#97d077;strokeColor=#82b366;" parent="1" vertex="1">
          <mxGeometry x="1590" y="200" width="80" height="30" as="geometry" />
        </mxCell>
        <mxCell id="MMRu1UpsGfV0gEB40E9I-1" value="NÃO" style="rounded=1;whiteSpace=wrap;html=1;fillColor=#f8cecc;gradientColor=#ea6b66;strokeColor=#b85450;" parent="1" vertex="1">
          <mxGeometry x="1680" y="197.5" width="80" height="35" as="geometry" />
        </mxCell>
        <mxCell id="bHf-8R54nAJhONeu0QT--1" value="CADASTRO ATUALIZADO." style="shape=ext;double=1;rounded=1;whiteSpace=wrap;html=1;fillColor=#d5e8d4;strokeColor=#82b366;gradientColor=#97d077;" parent="1" vertex="1">
          <mxGeometry x="1600" y="280" width="170" height="80" as="geometry" />
        </mxCell>
        <mxCell id="r80cdVk2RLvrgVxxlgZT-1" value="CADASTRO BEM SUCEDIDO COM SUCESSO." style="shape=ext;double=1;rounded=1;whiteSpace=wrap;html=1;fillColor=#d5e8d4;strokeColor=#82b366;gradientColor=#97d077;" parent="1" vertex="1">
          <mxGeometry x="1610" y="405" width="170" height="80" as="geometry" />
        </mxCell>
        <mxCell id="MJ9lENT2hx_d-TjJ00TQ-1" value="" style="rounded=1;whiteSpace=wrap;html=1;" parent="1" vertex="1">
          <mxGeometry x="1620" y="510" width="160" height="90.25" as="geometry" />
        </mxCell>
        <mxCell id="glHHPLfe3pYY-5ZH_a1l-1" value="DESEJA ATUALIZAR?" style="text;html=1;align=center;verticalAlign=middle;resizable=0;points=[];autosize=1;strokeColor=none;fillColor=none;" parent="1" vertex="1">
          <mxGeometry x="1630" y="510" width="140" height="30" as="geometry" />
        </mxCell>
        <mxCell id="seSFxOKRamT4XC5iQb1h-1" value="SIM" style="rounded=1;whiteSpace=wrap;html=1;fillColor=#d5e8d4;gradientColor=#97d077;strokeColor=#82b366;" parent="1" vertex="1">
          <mxGeometry x="1620" y="569.5" width="80" height="30" as="geometry" />
        </mxCell>
        <mxCell id="FB3HrsQGbrYS1PtOB6Oa-1" value="NÃO" style="rounded=1;whiteSpace=wrap;html=1;fillColor=#f8cecc;gradientColor=#ea6b66;strokeColor=#b85450;" parent="1" vertex="1">
          <mxGeometry x="1700" y="567" width="80" height="32.5" as="geometry" />
        </mxCell>
        <mxCell id="jrhjB9jEwcZb_h_m5edF-1" value="" style="rounded=1;whiteSpace=wrap;html=1;fillColor=#f8cecc;gradientColor=#ea6b66;strokeColor=#b85450;" parent="1" vertex="1">
          <mxGeometry x="20" y="230" width="170" height="90" as="geometry" />
        </mxCell>
        <mxCell id="IkEe5TJ-JhebhhhEq7mF-1" value="" style="rounded=1;whiteSpace=wrap;html=1;fillColor=#f8cecc;gradientColor=#ea6b66;strokeColor=#b85450;" parent="1" vertex="1">
          <mxGeometry x="20" y="385" width="170" height="85" as="geometry" />
        </mxCell>
        <mxCell id="tjMBX6K9qqKv9Ef3byBX-1" value="" style="image;html=1;image=img/lib/clip_art/computers/Database_Add_128x128.png" parent="1" vertex="1">
          <mxGeometry x="400" y="275" width="80" height="20" as="geometry" />
        </mxCell>
        <mxCell id="ZYG9WykhQ-dLnYjQ9tJU-1" value="" style="image;html=1;image=img/lib/atlassian/Bamboo_Logo.svg;" parent="1" vertex="1">
          <mxGeometry x="450" y="270" width="30" height="30" as="geometry" />
        </mxCell>
        <mxCell id="3Fq7NznPxElwuz_PJf1f-1" value="" style="image;html=1;image=img/lib/clip_art/computers/Database_Add_128x128.png" parent="1" vertex="1">
          <mxGeometry x="720" y="810" width="536" height="40" as="geometry" />
        </mxCell>
        <mxCell id="VKJFtuN7ZzNrz3rSgQm4-1" value="" style="image;html=1;image=img/lib/atlassian/Bamboo_Logo.svg;" parent="1" vertex="1">
          <mxGeometry x="1010" y="810" width="30" height="40" as="geometry" />
        </mxCell>
        <mxCell id="ZDmrDsFL3ok71fIH8WPX-1" value="BUSCA NÃO ENCONTRADA" style="text;html=1;align=center;verticalAlign=middle;resizable=0;points=[];autosize=1;strokeColor=none;fillColor=none;" parent="1" vertex="1">
          <mxGeometry x="20" y="260" width="180" height="30" as="geometry" />
        </mxCell>
        <mxCell id="zkjInnnNCzIYK2IuXd9K-1" value="DADOS INVALÍDOS." style="text;html=1;align=center;verticalAlign=middle;resizable=0;points=[];autosize=1;strokeColor=none;fillColor=none;" parent="1" vertex="1">
          <mxGeometry x="40" y="385" width="140" height="30" as="geometry" />
        </mxCell>
        <mxCell id="inwsVALy_j3u7ZYUPQZl-1" value="" style="endArrow=none;html=1;rounded=0;" parent="1" edge="1">
          <mxGeometry width="50" height="50" relative="1" as="geometry">
            <mxPoint x="900" y="428" as="sourcePoint" />
            <mxPoint x="900" y="400" as="targetPoint" />
            <Array as="points">
              <mxPoint x="901" y="428" />
            </Array>
          </mxGeometry>
        </mxCell>
        <mxCell id="FwoYe16X2H_XN-IcBstU-1" value="TEM CERTEZA QUE DESEJA APAGAR?" style="rounded=1;whiteSpace=wrap;html=1;" vertex="1" parent="1">
          <mxGeometry x="5" y="533.25" width="200" height="100" as="geometry" />
        </mxCell>
        <mxCell id="EjDmuzb8Zp343PJiH9Mx-1" value="" style="verticalLabelPosition=bottom;html=1;verticalAlign=top;align=center;strokeColor=none;fillColor=#00BEF2;shape=mxgraph.azure.azure_alert;" vertex="1" parent="1">
          <mxGeometry x="85" y="533.25" width="40" height="30" as="geometry" />
        </mxCell>
        <mxCell id="oOIEmX05lQ9SweGqYlip-1" value="SIM" style="rounded=1;whiteSpace=wrap;html=1;fillColor=#d5e8d4;gradientColor=#97d077;strokeColor=#82b366;" vertex="1" parent="1">
          <mxGeometry x="10" y="600.25" width="80" height="30" as="geometry" />
        </mxCell>
        <mxCell id="N3Q_ybc4mGzbSx-tMxHl-1" value="NÃO" style="rounded=1;whiteSpace=wrap;html=1;fillColor=#f8cecc;gradientColor=#ea6b66;strokeColor=#b85450;" vertex="1" parent="1">
          <mxGeometry x="110" y="600" width="80" height="30" as="geometry" />
        </mxCell>
        <mxCell id="ncpyER599hAWCguz-e4R-1" value="" style="shape=mxgraph.mockup.markup.redX;fillColor=#ff0000;html=1;shadow=0;whiteSpace=wrap;strokeColor=none;" vertex="1" parent="1">
          <mxGeometry x="85" y="415" width="40" height="40" as="geometry" />
        </mxCell>
      </root>
    </mxGraphModel>
  </diagram>
  <diagram id="X_vaJnPe6SYJkDE1-UyT" name="Página-6">
    <mxGraphModel dx="2261" dy="782" grid="1" gridSize="10" guides="1" tooltips="1" connect="1" arrows="1" fold="1" page="1" pageScale="1" pageWidth="827" pageHeight="1169" math="0" shadow="0">
      <root>
        <mxCell id="0" />
        <mxCell id="1" parent="0" />
        <mxCell id="qSGwknSD8yb6LR9GSEda-1" value="" style="shape=ext;double=1;rounded=1;whiteSpace=wrap;html=1;" parent="1" vertex="1">
          <mxGeometry x="150" y="120" width="380" height="780" as="geometry" />
        </mxCell>
        <mxCell id="qSGwknSD8yb6LR9GSEda-2" value="Cadastro Unidade" style="text;strokeColor=none;fillColor=none;html=1;fontSize=24;fontStyle=1;verticalAlign=middle;align=center;" parent="1" vertex="1">
          <mxGeometry x="280" y="150" width="100" height="40" as="geometry" />
        </mxCell>
        <mxCell id="JXfSS9E90CgrvcdLNBdx-1" value="NOME:" style="text;html=1;align=center;verticalAlign=middle;resizable=0;points=[];autosize=1;strokeColor=none;fillColor=none;" parent="1" vertex="1">
          <mxGeometry x="160" y="250" width="60" height="30" as="geometry" />
        </mxCell>
        <mxCell id="5tD40MPf7xjdLK4VBRVj-1" value="&lt;span style=&quot;color: rgba(0, 0, 0, 0); font-family: monospace; font-size: 0px; text-align: start; text-wrap: nowrap;&quot;&gt;%3CmxGraphModel%3E%3Croot%3E%3CmxCell%20id%3D%220%22%2F%3E%3CmxCell%20id%3D%221%22%20parent%3D%220%22%2F%3E%3CmxCell%20id%3D%222%22%20value%3D%22%22%20style%3D%22rounded%3D1%3BwhiteSpace%3Dwrap%3Bhtml%3D1%3BfillColor%3D%23f5f5f5%3BgradientColor%3D%23b3b3b3%3BstrokeColor%3D%23666666%3B%22%20vertex%3D%221%22%20parent%3D%221%22%3E%3CmxGeometry%20x%3D%22260%22%20y%3D%22270%22%20width%3D%22220%22%20height%3D%2230%22%20as%3D%22geometry%22%2F%3E%3C%2FmxCell%3E%3C%2Froot%3E%3C%2FmxGraphModel%3E&lt;/span&gt;" style="rounded=1;whiteSpace=wrap;html=1;fillColor=#f5f5f5;gradientColor=#b3b3b3;strokeColor=#666666;" parent="1" vertex="1">
          <mxGeometry x="160" y="300" width="220" height="30" as="geometry" />
        </mxCell>
        <mxCell id="LXlDirEyUQdZFz2bS3g8-1" value="" style="html=1;verticalLabelPosition=bottom;align=center;labelBackgroundColor=#ffffff;verticalAlign=top;strokeWidth=2;strokeColor=#0080F0;shadow=0;dashed=0;shape=mxgraph.ios7.icons.add;" parent="1" vertex="1">
          <mxGeometry x="450" y="250" width="30" height="30" as="geometry" />
        </mxCell>
        <mxCell id="ulfu32lhDBn7C1McLiEg-1" value="" style="rounded=1;whiteSpace=wrap;html=1;fillColor=#f8cecc;gradientColor=#ea6b66;strokeColor=#b85450;" parent="1" vertex="1">
          <mxGeometry x="260" y="810" width="120" height="40" as="geometry" />
        </mxCell>
        <mxCell id="ulfu32lhDBn7C1McLiEg-2" value="CANCELAR" style="text;html=1;align=center;verticalAlign=middle;resizable=0;points=[];autosize=1;strokeColor=none;fillColor=none;" parent="1" vertex="1">
          <mxGeometry x="280" y="815" width="90" height="30" as="geometry" />
        </mxCell>
        <mxCell id="O_e4RXOG7iyrl5bKwqUa-1" value="CADASTRAR" style="rounded=1;whiteSpace=wrap;html=1;fillColor=#dae8fc;gradientColor=#7ea6e0;strokeColor=#6c8ebf;" parent="1" vertex="1">
          <mxGeometry x="260" y="760" width="120" height="40" as="geometry" />
        </mxCell>
        <mxCell id="t_4jSHbUlstkync3soEH-1" value="" style="image;html=1;image=img/lib/clip_art/computers/Database_Add_128x128.png" parent="1" vertex="1">
          <mxGeometry x="180" y="840" width="536" height="40" as="geometry" />
        </mxCell>
        <mxCell id="caQM0lg43ePiTKtIm1Za-1" value="" style="image;html=1;image=img/lib/atlassian/Bamboo_Logo.svg;" parent="1" vertex="1">
          <mxGeometry x="470" y="840" width="40" height="40" as="geometry" />
        </mxCell>
        <mxCell id="snEifaTvQ_HpqJG78BA_-1" value="" style="rounded=1;whiteSpace=wrap;html=1;fillColor=#f8cecc;gradientColor=#ea6b66;strokeColor=#b85450;" parent="1" vertex="1">
          <mxGeometry x="-90" y="310" width="160" height="80" as="geometry" />
        </mxCell>
        <mxCell id="snEifaTvQ_HpqJG78BA_-4" value="" style="shape=mxgraph.mockup.markup.redX;fillColor=#ff0000;html=1;shadow=0;whiteSpace=wrap;strokeColor=none;" parent="1" vertex="1">
          <mxGeometry x="-25" y="340" width="30" height="40" as="geometry" />
        </mxCell>
        <mxCell id="snEifaTvQ_HpqJG78BA_-7" value="DADOS INVALÍDOS" style="text;html=1;align=center;verticalAlign=middle;resizable=0;points=[];autosize=1;strokeColor=none;fillColor=none;" parent="1" vertex="1">
          <mxGeometry x="-80" y="310" width="130" height="30" as="geometry" />
        </mxCell>
        <mxCell id="lz-Koqt8Vy87GYAUeHIM-1" value="" style="rounded=1;whiteSpace=wrap;html=1;" vertex="1" parent="1">
          <mxGeometry x="560" y="150" width="180" height="85" as="geometry" />
        </mxCell>
        <mxCell id="X5L7QFbCrO-JUkueWHa3-1" value="EXCLUIR UNIDADE:" style="text;html=1;align=center;verticalAlign=middle;resizable=0;points=[];autosize=1;strokeColor=none;fillColor=none;" vertex="1" parent="1">
          <mxGeometry x="580" y="155" width="140" height="30" as="geometry" />
        </mxCell>
        <mxCell id="NCTPJGwZYDg0-ItHRsH7-1" value="SIM" style="rounded=1;whiteSpace=wrap;html=1;fillColor=#d5e8d4;gradientColor=#97d077;strokeColor=#82b366;" vertex="1" parent="1">
          <mxGeometry x="570" y="190" width="80" height="30" as="geometry" />
        </mxCell>
        <mxCell id="5QIvHqdaIjJUY8UOlzLg-1" value="NÃO" style="rounded=1;whiteSpace=wrap;html=1;fillColor=#f8cecc;gradientColor=#ea6b66;strokeColor=#b85450;" vertex="1" parent="1">
          <mxGeometry x="660" y="187.5" width="80" height="35" as="geometry" />
        </mxCell>
        <mxCell id="xv0WPQbDCMe7DTmqY08K-1" value="CADASTRO ATUALIZADO." style="shape=ext;double=1;rounded=1;whiteSpace=wrap;html=1;fillColor=#d5e8d4;strokeColor=#82b366;gradientColor=#97d077;" vertex="1" parent="1">
          <mxGeometry x="565" y="260" width="170" height="80" as="geometry" />
        </mxCell>
        <mxCell id="x1e4yDfx_IinhHWyOD0R-1" value="CADASTRO BEM SUCEDIDO COM SUCESSO." style="shape=ext;double=1;rounded=1;whiteSpace=wrap;html=1;fillColor=#d5e8d4;strokeColor=#82b366;gradientColor=#97d077;" vertex="1" parent="1">
          <mxGeometry x="570" y="380" width="170" height="80" as="geometry" />
        </mxCell>
      </root>
    </mxGraphModel>
  </diagram>
</mxfile>
